<?xml version="1.0" standalone="no"?>
<!DOCTYPE svg PUBLIC "-//W3C//DTD SVG 20010904//EN"
 "http://www.w3.org/TR/2001/REC-SVG-20010904/DTD/svg10.dtd">
<svg version="1.0" xmlns="http://www.w3.org/2000/svg"
 width="1024.000000pt" height="1024.000000pt" viewBox="0 0 1024.000000 1024.000000"
 preserveAspectRatio="xMidYMid meet">
<metadata>
Created by potrace 1.14, written by Peter Selinger 2001-2017
</metadata>
<g transform="translate(0.000000,1024.000000) scale(0.100000,-0.100000)"
fill="#000000" stroke="none">
<path d="M4719 9683 c-66 -30 -122 -83 -154 -145 -14 -26 -28 -49 -33 -52 -4
-2 -38 -7 -75 -10 -37 -3 -71 -7 -75 -10 -4 -2 -38 -7 -77 -11 -91 -8 -284
-47 -335 -68 -14 -5 -34 -11 -45 -12 -29 -4 -174 -54 -218 -76 -22 -10 -45
-19 -53 -19 -8 0 -14 -4 -14 -10 0 -5 -3 -9 -7 -8 -10 2 -39 -9 -88 -32 -22
-11 -52 -24 -67 -29 -16 -6 -28 -15 -28 -20 0 -4 -13 -11 -29 -14 -16 -3 -35
-12 -42 -20 -8 -7 -22 -16 -31 -20 -10 -3 -18 -11 -18 -17 0 -5 -7 -10 -16
-10 -9 0 -32 -13 -51 -30 -18 -16 -40 -30 -47 -30 -7 0 -23 -11 -36 -25 -13
-14 -27 -25 -30 -25 -4 0 -24 18 -46 39 -21 22 -46 41 -54 43 -8 2 -23 11 -34
20 -10 10 -23 15 -28 12 -4 -3 -8 -1 -8 4 0 9 -64 42 -83 42 -7 0 -24 6 -39
14 -46 24 -114 35 -246 41 -50 2 -90 0 -88 -3 2 -4 -17 -6 -42 -5 -26 1 -79
-7 -119 -17 -83 -23 -256 -108 -303 -150 -9 -8 -26 -22 -36 -31 -53 -44 -164
-188 -164 -212 0 -9 -5 -19 -10 -22 -25 -15 -83 -164 -95 -243 -3 -15 -9 -45
-15 -67 -10 -40 -15 -219 -6 -233 2 -4 7 -32 11 -62 4 -30 18 -82 31 -116 13
-33 24 -65 24 -70 1 -33 132 -187 185 -219 44 -25 63 -51 43 -57 -6 -2 -12
-20 -12 -40 -1 -20 -3 -35 -5 -32 -7 6 -41 -44 -41 -60 0 -9 -7 -33 -17 -54
-20 -46 -35 -96 -73 -242 -38 -146 -58 -266 -65 -405 -4 -60 -8 -135 -10 -165
-2 -30 -4 -65 -4 -78 -1 -13 -5 -21 -10 -17 -15 9 -100 -109 -109 -152 -13
-56 -4 -122 19 -155 19 -26 19 -30 4 -80 -17 -59 -20 -138 -4 -138 5 0 7 -5 4
-10 -4 -6 1 -22 10 -36 11 -18 15 -37 10 -62 -6 -41 -15 -101 -20 -147 -10
-86 58 -305 95 -305 5 0 10 -7 10 -17 0 -23 77 -96 95 -89 17 6 65 -48 65 -75
0 -10 5 -19 10 -19 6 0 10 -7 10 -15 0 -9 7 -18 15 -21 8 -4 15 -11 15 -18 1
-23 121 -156 141 -156 6 0 7 -5 3 -12 -5 -8 -2 -9 9 -5 12 5 19 -1 23 -18 3
-14 10 -25 14 -25 5 0 30 -17 57 -38 49 -39 102 -71 208 -126 33 -17 62 -34
63 -38 2 -5 10 -8 17 -8 28 0 24 -20 -12 -80 -21 -34 -45 -74 -53 -88 -8 -15
-17 -29 -20 -32 -13 -12 -50 -82 -50 -96 0 -8 -4 -14 -9 -14 -5 0 -18 -22 -30
-49 -11 -28 -26 -53 -31 -56 -6 -3 -10 -12 -10 -20 0 -7 -18 -52 -40 -99 -22
-47 -41 -94 -43 -103 -2 -10 -8 -27 -14 -38 -13 -24 -64 -217 -68 -260 -2 -16
-8 -64 -14 -105 -11 -83 -7 -342 5 -362 5 -7 8 -20 9 -28 1 -33 29 -130 37
-130 5 0 6 -4 3 -10 -3 -5 3 -27 15 -49 11 -22 20 -46 20 -54 0 -7 9 -23 20
-35 11 -12 20 -27 20 -35 0 -8 10 -25 23 -39 12 -13 28 -36 36 -50 7 -14 24
-31 37 -38 13 -7 22 -16 21 -19 -3 -12 35 -60 53 -66 10 -3 25 -22 33 -43 13
-31 13 -42 1 -76 -8 -21 -16 -53 -19 -70 -2 -17 -11 -62 -20 -101 -9 -38 -18
-82 -20 -97 -2 -15 -6 -31 -8 -35 -7 -11 -24 -122 -30 -199 -1 -10 -5 -21 -9
-24 -3 -3 -9 -37 -13 -75 -8 -88 -13 -151 -22 -240 -8 -88 -8 -372 0 -445 4
-30 9 -79 12 -107 16 -155 79 -339 162 -471 18 -28 30 -52 27 -52 -3 0 16 -25
41 -55 26 -30 51 -52 56 -49 5 3 9 -4 9 -14 0 -11 17 -32 38 -48 20 -16 51
-43 67 -61 81 -85 366 -220 540 -254 22 -4 63 -13 90 -19 81 -17 187 -24 405
-24 198 -1 299 7 346 24 12 5 24 6 27 4 3 -3 38 4 77 16 40 12 82 23 94 26 54
10 249 103 297 143 64 52 151 136 160 156 5 11 22 40 37 65 30 48 72 170 72
208 0 26 -7 25 145 23 66 -1 146 3 178 7 50 8 57 7 57 -8 0 -10 6 -23 14 -29
8 -7 18 -31 21 -53 8 -46 46 -127 81 -175 13 -17 24 -35 24 -38 0 -6 62 -68
133 -133 46 -42 298 -168 311 -155 3 3 22 -2 42 -12 79 -37 255 -58 489 -59
202 0 331 6 395 19 14 2 39 7 55 10 149 29 445 144 445 173 0 8 6 12 13 9 12
-4 52 20 97 59 14 12 45 39 70 60 25 22 57 53 72 69 61 69 78 90 78 99 0 5 7
18 17 28 27 30 85 142 97 188 4 14 14 50 22 80 17 59 19 72 35 200 12 93 7
316 -10 480 -13 117 -77 435 -117 580 -14 52 -32 118 -39 145 -7 28 -24 88
-39 135 -15 47 -29 92 -32 101 -3 12 11 27 48 50 57 37 75 50 116 90 15 14 37
31 50 38 12 6 22 16 22 22 0 6 16 27 35 46 19 19 35 40 35 47 0 6 9 17 19 23
22 14 104 177 120 238 36 141 44 192 48 290 3 95 -8 210 -32 337 -10 51 -50
168 -58 168 -4 0 -6 4 -2 9 5 10 -18 75 -61 169 -13 29 -24 55 -24 58 0 3 -9
14 -20 26 -11 12 -20 27 -20 34 0 12 -35 72 -59 100 -5 6 -12 20 -15 32 -4 12
-12 22 -17 22 -6 0 -15 14 -20 30 -6 17 -15 30 -20 30 -5 0 -23 21 -39 47 -30
47 -53 75 -173 212 -85 96 -85 95 -32 126 25 14 45 31 45 37 0 6 3 8 6 5 15
-14 269 217 362 329 18 21 46 55 62 74 17 19 45 64 63 100 17 35 38 70 45 78
11 12 16 41 15 79 -1 7 3 10 8 7 5 -3 7 9 5 26 -2 17 0 33 5 36 5 3 9 13 9 24
0 10 11 28 25 41 69 64 97 188 81 357 -2 29 -12 74 -20 100 -8 26 -22 86 -30
133 -9 55 -26 108 -45 143 -30 57 -30 57 -11 76 11 11 21 26 21 33 1 6 3 27 5
46 7 65 -70 192 -137 227 -16 8 -28 18 -27 22 2 6 -11 115 -18 152 -5 21 -11
68 -18 118 -3 23 -15 73 -26 111 -11 37 -20 77 -20 88 0 11 -3 23 -7 27 -5 4
-8 11 -9 14 -2 28 -19 81 -31 100 -8 13 -12 26 -10 29 6 5 -35 109 -66 168
-12 22 -22 42 -22 45 -7 24 -43 93 -80 150 -25 39 -45 73 -45 76 0 3 22 28 50
55 27 28 52 59 55 70 4 10 10 19 15 19 21 0 54 76 101 229 14 48 17 191 6 285
-13 107 -74 259 -142 356 -46 64 -138 161 -184 193 -25 17 -47 34 -49 39 -2 4
-13 8 -24 8 -11 0 -32 8 -46 19 -29 20 -164 68 -222 78 -47 8 -234 9 -290 1
-105 -15 -239 -59 -248 -80 -2 -4 -9 -8 -15 -8 -17 0 -85 -48 -159 -114 l-67
-58 -29 24 c-16 13 -45 31 -63 38 -19 8 -36 16 -39 19 -8 10 -94 50 -140 66
-24 8 -49 20 -55 25 -6 5 -20 11 -31 13 -10 2 -27 7 -37 12 -10 4 -20 5 -24 2
-3 -3 -12 1 -20 9 -9 8 -22 13 -31 9 -8 -3 -20 -1 -26 4 -26 21 -278 76 -303
67 -7 -3 -13 -1 -13 5 0 6 -9 8 -20 4 -11 -3 -20 -2 -20 3 0 5 -16 8 -35 6
-19 -1 -35 1 -35 5 0 4 -12 7 -27 7 -106 2 -123 4 -123 20 0 22 -41 94 -53 94
-5 0 -15 7 -21 15 -13 17 -136 31 -136 15 0 -5 -7 -7 -15 -4 -8 3 -26 -6 -42
-22 -15 -15 -29 -22 -31 -16 -2 6 -16 29 -32 51 -57 78 -163 100 -261 54z
m193 -95 c32 -39 47 -99 37 -148 -5 -23 -4 -37 4 -42 18 -12 32 -4 35 20 2 12
10 22 18 22 8 0 13 3 12 8 -2 4 3 14 10 22 7 8 21 26 32 39 11 13 20 21 20 17
0 -4 7 0 16 8 8 9 24 16 34 16 10 0 26 3 36 7 12 4 15 3 10 -5 -7 -11 7 -17
29 -12 6 1 7 -2 3 -6 -4 -4 1 -19 11 -33 11 -16 19 -46 20 -80 2 -62 6 -72 27
-64 8 3 13 8 10 10 -3 3 2 12 10 20 11 11 27 13 62 9 56 -8 124 -16 172 -20
19 -2 37 -5 40 -6 3 -1 8 -2 12 -2 3 1 37 -6 75 -14 37 -8 74 -16 81 -16 6 -1
12 -5 12 -8 0 -11 53 -9 68 2 9 8 12 5 12 -9 0 -16 7 -20 32 -21 18 0 34 -6
36 -11 2 -6 8 -8 13 -5 5 3 27 -3 48 -14 30 -16 41 -18 50 -9 9 9 15 8 22 -5
6 -10 16 -18 24 -18 12 0 61 -24 100 -49 6 -3 20 -6 32 -6 12 0 31 -9 42 -19
11 -10 31 -19 44 -20 14 0 23 -4 21 -8 -5 -7 65 -51 83 -51 7 0 10 -4 7 -8 -2
-4 5 -13 17 -19 15 -8 19 -9 15 -1 -4 6 -1 11 7 11 8 0 40 25 71 55 31 31 56
53 56 50 0 -3 11 5 25 17 13 11 22 26 18 31 -3 6 -1 7 6 3 6 -4 24 2 40 13 15
11 31 18 35 14 3 -3 6 -1 6 5 0 7 7 12 15 12 8 0 15 5 15 11 0 6 7 9 15 5 8
-3 15 0 15 6 0 6 3 9 6 5 3 -3 18 -1 33 5 41 16 108 29 156 32 17 0 36 5 43 9
7 5 12 3 12 -5 0 -8 3 -9 8 -3 8 12 52 18 52 7 0 -4 21 -8 48 -9 26 -2 55 -3
65 -3 9 -1 17 -5 17 -10 0 -4 9 -6 20 -3 12 3 28 -2 38 -10 11 -10 27 -14 40
-10 13 3 22 1 22 -6 0 -6 5 -11 10 -11 6 0 27 -11 48 -23 20 -13 51 -32 67
-43 17 -10 33 -17 38 -16 4 1 7 -2 7 -8 0 -5 7 -6 17 -3 10 4 14 2 10 -4 -4
-6 11 -27 33 -47 22 -20 40 -41 40 -47 0 -6 4 -7 10 -4 5 3 15 -5 22 -19 6
-14 15 -26 20 -26 4 0 8 -9 8 -20 0 -11 5 -20 11 -20 5 0 8 -4 4 -9 -3 -5 -1
-12 5 -16 5 -3 24 -34 41 -68 31 -62 74 -254 64 -286 -2 -9 0 -23 5 -30 5 -9
5 -22 0 -32 -5 -9 -11 -34 -14 -55 -2 -21 -5 -39 -6 -39 -1 0 -3 -9 -5 -20
-10 -53 -19 -82 -31 -100 -8 -11 -14 -27 -14 -36 0 -9 -18 -37 -41 -63 -22
-25 -38 -46 -34 -46 4 0 -7 -13 -23 -30 -17 -16 -35 -30 -40 -30 -23 0 -44
-39 -37 -69 4 -17 7 -34 7 -38 0 -5 9 -14 19 -21 10 -7 16 -19 13 -27 -4 -9 0
-15 10 -15 9 0 17 -7 17 -15 4 -41 19 -75 34 -75 8 0 17 -15 21 -36 4 -19 12
-38 20 -41 7 -2 10 -11 7 -19 -3 -8 0 -14 6 -14 6 0 11 -5 11 -11 0 -5 12 -35
26 -65 14 -30 23 -61 20 -69 -3 -8 -1 -15 4 -15 11 0 40 -58 40 -81 0 -10 5
-21 11 -25 6 -3 9 -17 6 -30 -2 -13 1 -25 9 -28 8 -3 11 -12 8 -21 -3 -8 -1
-15 5 -15 9 0 9 -5 1 -20 -7 -12 -7 -20 -1 -20 17 0 24 -42 10 -51 -11 -7 -11
-9 2 -9 11 0 16 -9 16 -27 1 -16 6 -50 13 -77 9 -37 9 -50 0 -56 -8 -5 -8 -11
3 -21 19 -20 29 -72 11 -65 -8 3 -11 0 -7 -10 3 -7 9 -14 14 -14 5 0 9 -7 9
-16 0 -9 -5 -12 -12 -8 -8 5 -9 0 -4 -17 4 -13 8 -32 7 -42 0 -9 4 -15 10 -12
5 4 9 1 9 -4 0 -6 10 -11 23 -12 12 0 16 -3 10 -6 -17 -6 -17 -26 -1 -21 18 6
96 -74 114 -117 15 -36 12 -85 -4 -85 -5 0 -17 8 -28 18 -10 10 -27 16 -38 14
-10 -2 -16 0 -12 6 3 5 -7 8 -25 6 -18 -2 -28 0 -24 6 3 6 2 10 -4 10 -22 0
-20 -20 3 -26 14 -3 24 -9 23 -13 -1 -3 15 -24 36 -46 47 -51 103 -149 112
-198 7 -37 7 -37 -20 -27 -26 10 -27 10 -20 -22 4 -18 13 -40 20 -48 18 -21
66 -122 60 -128 -2 -3 0 -12 4 -21 20 -36 22 -141 6 -217 -18 -80 -31 -97 -51
-69 -27 36 -55 -14 -32 -58 11 -21 -8 -51 -26 -40 -6 4 -5 -1 3 -10 8 -10 10
-24 6 -34 -5 -10 -7 -22 -6 -27 1 -5 -3 -30 -10 -56 -13 -51 -43 -95 -59 -85
-6 3 -7 0 -4 -9 4 -9 0 -18 -9 -22 -9 -3 -13 -12 -10 -20 3 -7 -2 -17 -11 -20
-9 -3 -16 -12 -16 -20 0 -8 -4 -14 -9 -14 -5 0 -13 -9 -16 -20 -3 -11 -13 -20
-22 -20 -10 0 -13 -6 -9 -16 3 -8 2 -12 -3 -9 -5 3 -12 -3 -15 -13 -3 -9 -23
-35 -45 -57 -21 -22 -37 -43 -34 -47 2 -5 0 -8 -6 -8 -6 0 -34 -22 -64 -50
-77 -71 -111 -100 -119 -100 -5 0 -8 -7 -8 -15 0 -8 -5 -15 -11 -15 -6 0 -28
-13 -48 -29 -20 -15 -51 -36 -69 -45 -19 -10 -30 -21 -26 -28 5 -8 2 -9 -9 -5
-11 4 -22 -1 -29 -13 -7 -11 -16 -20 -20 -20 -4 0 -27 -13 -51 -30 -25 -16
-50 -30 -57 -30 -6 0 -9 -3 -7 -7 3 -5 -10 -16 -28 -25 l-34 -17 1 147 c1 147
-7 201 -52 332 -25 73 -108 231 -135 259 -26 27 -55 64 -55 70 0 3 20 14 43
24 47 19 114 84 136 132 8 17 15 49 16 72 3 50 -22 76 -92 100 -87 30 -254 -9
-314 -73 l-22 -23 -16 29 c-59 108 -157 171 -272 175 -64 2 -70 1 -94 -27 -23
-25 -26 -37 -23 -81 l3 -52 -55 0 c-102 -2 -191 -16 -184 -28 5 -9 4 -9 -5 -1
-9 8 -24 9 -49 2 -20 -5 -55 -14 -77 -20 -22 -5 -52 -17 -68 -25 -15 -8 -37
-16 -49 -18 -11 -3 -31 -14 -43 -25 -12 -11 -24 -17 -28 -14 -11 11 -217 -159
-217 -180 0 -7 -11 -19 -25 -26 -14 -7 -25 -18 -25 -23 0 -5 -11 -22 -25 -39
-14 -16 -25 -35 -25 -41 0 -7 -9 -23 -20 -37 -11 -14 -20 -31 -20 -38 0 -7 -8
-29 -17 -50 -9 -20 -18 -48 -19 -60 -4 -30 -31 -72 -47 -72 -15 0 -106 -48
-123 -65 -26 -25 -73 -112 -84 -154 -6 -24 -11 -65 -10 -90 0 -25 1 -54 1 -64
0 -40 54 -134 112 -194 l61 -63 -17 -36 c-9 -19 -17 -41 -17 -49 0 -9 -10 -36
-22 -62 -23 -50 -45 -108 -104 -285 -20 -60 -40 -108 -44 -108 -5 0 -24 14
-42 30 -18 17 -43 33 -55 36 -13 4 -23 10 -23 16 0 5 -4 6 -10 3 -6 -3 -10 -2
-10 4 0 6 -15 14 -32 20 -18 5 -53 17 -78 26 -25 9 -56 18 -70 20 -14 1 -25 4
-25 5 0 2 -49 8 -140 18 -73 8 -134 7 -275 -2 -88 -7 -116 -9 -210 -20 -30 -4
-75 -9 -100 -11 -25 -3 -70 -8 -100 -12 -30 -4 -92 -7 -137 -7 -46 0 -83 -4
-83 -9 0 -4 -6 -5 -12 -1 -7 5 -19 9 -28 10 -8 1 -35 5 -60 9 -25 3 -54 9 -65
12 -11 4 -27 7 -35 8 -8 0 -21 4 -27 8 -7 5 -17 6 -22 2 -5 -3 -12 -2 -15 3
-3 5 -36 8 -73 8 -60 -1 -68 -3 -70 -21 -2 -11 0 -14 3 -7 3 6 15 12 26 12 16
0 19 -5 15 -21 -3 -12 -3 -18 0 -15 4 3 12 1 19 -5 8 -6 20 -9 29 -6 8 4 20 0
28 -7 7 -7 29 -12 49 -11 20 1 35 -2 32 -6 -8 -14 113 -32 219 -33 37 0 67 -4
67 -9 0 -4 4 -6 8 -3 5 3 36 6 70 7 34 1 59 5 57 9 -2 3 10 4 27 2 19 -3 33 1
39 9 6 9 9 10 9 2 0 -8 9 -9 28 -5 15 4 50 7 77 7 28 0 52 3 55 7 13 16 451
28 486 13 27 -11 84 -12 84 -1 0 6 6 3 13 -6 6 -9 30 -19 52 -23 22 -4 57 -15
79 -26 22 -10 44 -19 49 -19 10 0 98 -62 131 -92 11 -10 23 -18 28 -18 4 0 5
-6 2 -13 -3 -8 2 -20 11 -27 8 -7 15 -9 15 -6 0 4 6 1 14 -6 8 -7 12 -16 10
-19 -2 -4 7 -27 21 -53 91 -171 68 -399 -60 -606 -53 -85 -221 -252 -323 -319
-45 -30 -82 -58 -82 -61 0 -3 -10 -6 -21 -7 -12 -1 -29 -8 -38 -16 -32 -29
-317 -157 -348 -157 -8 0 -24 -6 -36 -14 -21 -13 -209 -63 -272 -73 -16 -2
-37 -7 -45 -10 -8 -3 -33 -8 -55 -10 -22 -3 -74 -11 -116 -17 -97 -15 -311
-10 -454 10 -60 9 -119 17 -130 18 -11 2 -32 8 -47 14 -15 6 -40 13 -55 16
-15 2 -30 5 -33 6 -3 1 -9 3 -15 4 -5 1 -34 14 -64 29 -30 15 -62 27 -72 27
-9 0 -22 7 -30 16 -7 8 -21 13 -31 11 -10 -3 -16 -1 -13 3 3 5 -4 14 -15 20
-11 6 -20 8 -20 5 0 -3 -9 4 -20 15 -12 12 -26 18 -32 14 -7 -4 -8 -3 -4 4 4
7 -2 16 -16 21 -13 5 -47 32 -76 60 -30 29 -58 49 -64 45 -7 -4 -8 -3 -4 4 4
7 2 12 -4 12 -6 0 -8 5 -5 10 3 6 -2 10 -11 10 -10 0 -15 3 -11 6 3 3 -8 20
-24 36 -16 17 -29 37 -29 44 0 7 -3 14 -7 16 -13 5 -93 168 -93 188 0 11 -4
20 -8 20 -10 0 -41 141 -47 215 -7 76 -9 221 -3 231 3 5 6 28 7 50 1 23 4 52
7 65 3 13 10 53 16 89 5 36 15 71 20 77 6 7 8 13 4 13 -4 0 1 14 9 31 9 17 14
37 11 45 -3 8 -1 14 4 14 6 0 10 8 10 18 0 9 11 39 25 66 14 27 25 55 25 61 0
14 56 125 70 139 6 6 10 17 10 25 0 8 11 29 25 47 14 18 28 47 31 63 4 17 9
29 13 27 4 -3 27 29 51 70 24 41 47 74 51 74 4 0 13 16 20 35 7 19 19 35 26
35 16 0 17 12 1 29 -11 11 -9 11 10 1 13 -6 30 -9 38 -6 9 3 12 1 9 -4 -3 -6
3 -10 14 -10 12 0 21 4 21 8 0 11 -74 52 -94 52 -10 0 -14 5 -10 11 4 8 -1 9
-17 4 -13 -4 -21 -4 -17 0 7 8 -142 92 -205 116 -15 6 -27 17 -27 25 0 8 -8
14 -19 14 -24 0 -73 39 -65 51 3 6 0 9 -7 8 -24 -5 -77 29 -96 61 -9 16 -24
30 -33 30 -18 0 -43 37 -35 51 4 5 2 8 -3 7 -29 -9 -132 163 -148 247 -4 22
-13 49 -21 61 -7 11 -10 24 -6 27 3 4 -1 7 -9 7 -11 0 -17 -15 -22 -50 -4 -27
-11 -50 -16 -50 -23 0 -78 75 -99 135 -57 160 -55 322 4 438 12 22 12 33 3 50
-10 20 -10 21 5 9 14 -12 16 -11 14 6 -1 19 -3 19 -29 6 -15 -8 -31 -21 -36
-30 -7 -13 -11 -14 -17 -4 -11 18 -7 110 6 126 6 7 9 19 7 26 -3 7 1 19 9 26
7 8 11 17 8 22 -3 4 2 10 10 14 8 3 15 12 15 21 0 8 5 15 11 15 5 0 7 5 4 10
-3 6 -1 10 4 10 6 0 11 7 11 16 0 8 5 12 10 9 13 -8 13 5 0 25 -6 10 -10 11
-10 3 0 -7 -6 -12 -12 -10 -7 1 -12 -3 -11 -10 2 -7 -3 -10 -11 -7 -7 3 -24
-6 -37 -20 -30 -32 -39 -32 -39 -2 0 13 -6 27 -12 29 -9 4 -7 6 3 6 9 1 16 8
17 16 1 8 3 22 4 30 1 8 6 15 11 15 6 0 8 3 4 6 -3 3 7 17 24 31 16 14 26 30
22 35 -3 6 -2 8 4 5 16 -10 63 16 58 33 -2 8 -7 33 -10 55 -4 32 -3 35 4 18 6
-13 13 -23 16 -23 10 0 1 54 -10 63 -6 4 -5 10 3 15 9 6 12 31 11 78 0 38 0
71 1 74 0 3 3 21 5 40 3 19 7 49 10 65 3 17 7 46 9 65 1 19 8 53 14 75 6 22
18 76 28 120 9 44 21 92 26 107 6 15 10 30 9 32 0 3 6 23 13 43 7 21 11 44 9
51 -3 6 0 12 6 12 6 0 11 9 11 19 0 11 5 23 10 26 6 4 8 10 5 15 -3 5 -1 11 4
14 5 4 19 35 31 70 11 35 29 72 39 82 14 15 16 24 8 42 -6 12 -17 22 -25 22
-9 0 -12 3 -9 6 9 9 -65 73 -78 67 -18 -6 -164 199 -157 221 2 4 -4 18 -11 30
-24 36 -45 238 -33 316 3 25 8 61 10 82 2 20 10 47 17 59 7 13 14 37 16 53 2
17 9 33 16 38 6 4 8 8 3 8 -4 0 -1 11 8 25 9 14 15 29 12 33 -2 4 9 23 25 41
16 18 26 37 23 42 -3 5 2 12 11 15 9 4 14 13 11 20 -3 8 0 13 7 11 7 -1 11 6
11 15 -1 11 4 14 14 11 10 -4 13 -2 8 5 -3 6 5 23 19 38 14 15 25 23 26 18 0
-5 4 1 10 14 5 13 13 21 17 18 5 -3 14 3 22 14 7 10 19 16 27 13 9 -4 11 0 7
11 -4 9 -3 16 2 14 11 -3 127 53 136 67 4 5 8 7 8 3 0 -4 16 0 35 8 20 8 40
12 45 9 6 -4 10 -1 10 5 0 7 7 10 15 6 8 -3 15 -1 15 4 0 5 8 8 18 8 9 0 65 3
123 7 71 5 112 4 126 -3 13 -7 23 -8 30 -1 6 6 28 4 64 -7 56 -17 69 -20 81
-23 5 -1 24 -10 43 -21 20 -11 42 -20 51 -20 8 0 12 -4 9 -10 -3 -5 1 -10 9
-10 9 0 16 -5 16 -11 0 -5 4 -8 10 -4 5 3 18 -3 30 -15 11 -11 20 -17 20 -14
0 3 7 -1 15 -10 8 -8 15 -18 15 -23 0 -15 41 -44 52 -37 7 4 8 3 4 -4 -9 -15
26 -33 45 -21 7 5 10 9 6 9 -4 0 3 11 15 24 13 12 29 21 36 18 8 -3 10 1 5 14
-4 11 -3 15 5 10 6 -4 17 2 24 14 7 11 19 20 26 20 12 0 22 7 56 37 8 7 16 9
20 6 3 -4 6 -1 6 6 0 7 5 9 10 6 6 -3 10 -1 10 5 0 6 4 9 9 5 5 -3 16 2 24 10
9 8 21 15 27 15 6 0 8 5 5 10 -6 10 7 14 33 11 6 -1 12 5 12 14 0 8 3 14 8 13
16 -4 75 15 93 31 11 9 23 16 27 17 4 0 25 9 47 19 22 10 45 20 50 21 6 1 42
14 80 29 77 29 101 37 128 38 9 1 17 5 17 10 0 5 7 7 15 3 8 -3 15 -2 15 3 0
5 10 8 23 7 12 -1 25 2 28 6 5 8 50 18 92 21 9 1 17 4 17 7 0 4 6 7 13 8 84 8
167 24 167 33 0 4 14 4 30 -1 19 -5 30 -5 30 1 0 6 4 8 9 5 5 -4 21 -2 36 4
19 7 24 7 19 -1 -4 -8 -1 -8 12 -1 11 5 39 10 64 10 25 0 50 0 57 1 7 0 24 25
37 54 29 60 90 148 103 148 4 -1 16 5 25 13 41 35 130 22 170 -26z m3028
-2868 c0 -5 -5 -10 -11 -10 -5 0 -7 5 -4 10 3 6 8 10 11 10 2 0 4 -4 4 -10z
m-1454 -646 c47 -22 104 -87 114 -128 6 -28 5 -36 -6 -36 -16 0 -54 35 -54 50
0 5 -9 14 -20 20 -18 10 -19 9 -5 -24 15 -35 13 -37 -25 -24 -8 3 -36 13 -63
23 -26 9 -54 26 -62 38 -16 22 -21 88 -8 101 11 10 91 -2 129 -20z m541 -96
c14 -14 14 -21 3 -48 -26 -62 -68 -107 -125 -135 l-57 -28 -23 26 c-14 14 -34
28 -45 32 -20 6 -29 35 -10 35 5 0 31 14 57 30 61 39 30 39 -46 0 -54 -27 -71
-29 -71 -9 0 19 76 80 123 98 63 26 168 25 194 -1z m-609 -74 c280 -58 524
-274 608 -539 59 -186 56 -456 -8 -601 -16 -37 -60 -107 -73 -116 -5 -4 1 -8
15 -8 28 0 51 -42 70 -125 16 -73 -21 -195 -65 -211 -8 -3 -75 4 -149 16 -75
11 -173 23 -218 26 -91 5 -127 15 -175 51 -56 41 -132 71 -166 66 -18 -2 -69
-17 -113 -33 -98 -35 -182 -36 -256 -2 -73 32 -159 125 -142 154 4 7 4 10 -1
6 -10 -9 -41 32 -37 47 2 5 1 7 -3 3 -4 -4 -24 4 -45 17 -49 31 -95 42 -209
51 -52 4 -106 13 -120 20 -14 8 -31 14 -37 14 -24 0 -94 61 -117 102 -42 73
-51 133 -32 217 12 52 26 83 48 108 36 41 98 72 143 73 27 0 32 5 42 39 7 21
12 44 12 52 0 20 51 150 70 179 9 14 30 44 45 68 57 87 199 205 297 249 20 9
35 20 32 25 -3 4 2 5 10 2 8 -3 27 1 43 9 40 20 147 47 228 57 85 10 205 4
303 -16z m976 -1039 c23 -22 62 -66 85 -97 45 -60 55 -67 65 -45 3 6 5 3 5 -8
-2 -36 1 -46 11 -40 5 3 7 0 4 -8 -2 -7 7 -22 21 -33 14 -10 25 -24 25 -30 0
-6 15 -28 34 -49 19 -21 33 -42 30 -47 -3 -4 -1 -8 4 -8 5 0 15 -13 22 -30 7
-16 16 -30 21 -30 5 0 9 -6 9 -12 0 -7 9 -24 20 -38 11 -14 20 -31 20 -38 0
-8 9 -25 20 -39 11 -14 20 -33 20 -42 0 -10 9 -27 19 -38 11 -12 17 -23 15
-26 -3 -3 0 -16 7 -29 15 -26 16 -30 18 -59 0 -11 6 -17 11 -14 6 4 10 -7 10
-27 0 -19 8 -44 17 -57 12 -18 13 -22 2 -16 -12 8 -12 6 0 -8 7 -9 11 -17 8
-17 -4 0 0 -18 8 -40 9 -27 10 -38 3 -34 -7 5 -8 3 -3 -6 39 -64 38 -414 -2
-540 -2 -8 -4 -16 -3 -18 0 -1 -6 -15 -14 -30 -8 -15 -22 -43 -31 -62 -41 -85
-133 -217 -159 -229 -4 -2 -16 -12 -25 -23 -15 -19 -150 -111 -161 -111 -3 0
-16 -8 -29 -18 -13 -11 -30 -19 -38 -19 -9 0 -32 -9 -52 -19 -76 -40 -224 -65
-391 -66 -147 0 -278 17 -330 44 -8 5 -42 16 -75 25 -66 18 -97 32 -135 57
-14 9 -34 19 -45 21 -11 1 -22 6 -25 9 -3 3 -34 26 -70 50 -82 56 -107 77
-201 167 -41 39 -79 69 -84 65 -4 -5 -5 -2 -1 5 4 7 -4 28 -21 50 -137 179
-200 360 -181 523 9 80 33 165 52 189 7 8 18 30 26 48 7 17 18 32 26 32 7 0
16 9 19 21 4 11 17 25 31 31 13 6 21 15 18 19 -3 5 2 9 10 9 9 0 16 4 16 8 0
9 98 62 113 62 4 0 20 6 35 14 15 8 44 17 64 20 21 3 57 10 81 16 24 5 107 9
183 8 77 -1 145 2 152 6 8 5 10 2 6 -8 -5 -13 1 -14 32 -10 21 2 51 0 68 -5
17 -6 55 -13 84 -16 29 -3 62 -9 75 -13 12 -5 39 -7 60 -6 20 1 37 -1 37 -5 0
-3 13 -6 30 -7 16 -1 27 2 25 6 -2 4 8 8 23 8 15 1 36 4 47 6 11 3 22 5 25 5
3 1 11 11 18 22 13 20 12 21 -17 17 -18 -3 -31 0 -31 6 0 6 -5 4 -10 -4 -6
-10 -10 -11 -10 -2 0 8 -16 12 -45 12 -25 0 -45 2 -45 4 0 2 12 28 27 58 24
45 28 65 27 133 0 65 -6 91 -28 141 l-28 61 32 51 c17 27 29 54 28 59 -4 12
48 84 55 76 4 -3 7 -2 7 4 0 6 8 10 18 9 9 0 16 5 14 12 -1 8 2 11 8 7 6 -3
38 8 73 25 56 28 62 29 66 13 2 -10 22 -36 45 -58z m-2051 -239 c55 -24 72
-29 86 -27 8 1 18 -3 22 -11 7 -10 9 -10 9 2 0 13 1 13 11 0 8 -11 9 -8 5 15
-6 27 -5 28 7 13 16 -21 34 -23 39 -7 3 9 15 9 43 2 31 -9 34 -11 15 -12 l-25
-1 25 -13 c17 -9 28 -10 33 -3 5 7 7 5 4 -4 -2 -8 -10 -15 -18 -16 -37 -3 -42
-7 -19 -13 17 -5 31 -3 42 7 15 13 16 12 9 -14 -5 -16 -13 -28 -20 -26 -6 1
-11 -2 -11 -8 0 -5 -3 -9 -7 -8 -14 4 -53 -13 -53 -23 0 -11 7 -11 29 0 10 6
38 12 63 15 43 5 47 4 71 -27 13 -17 43 -51 67 -75 l42 -42 -33 -14 c-19 -7
-43 -16 -53 -20 -41 -14 -5 -16 49 -2 31 8 63 12 70 10 15 -6 28 -32 55 -114
l21 -65 -26 -23 c-15 -12 -24 -26 -20 -31 3 -5 -3 -16 -12 -23 -19 -14 -25
-28 -78 -175 -20 -55 -29 -93 -23 -95 16 -6 -9 -48 -27 -48 -8 0 -15 -8 -15
-17 0 -33 24 -133 32 -133 4 0 8 -18 8 -40 0 -27 5 -42 17 -49 17 -9 17 -11 1
-45 -12 -24 -35 -45 -73 -67 -30 -17 -53 -34 -50 -39 2 -4 -7 -5 -20 -2 -15 2
-25 0 -25 -7 0 -7 -5 -9 -12 -5 -6 4 -8 3 -5 -3 4 -6 -1 -14 -11 -18 -16 -7
-15 -8 3 -15 17 -8 18 -9 2 -9 -10 -1 -22 9 -27 22 -8 20 -9 21 -11 2 -1 -11
0 -26 1 -34 1 -9 -4 -12 -17 -7 -16 5 -15 4 2 -9 15 -12 17 -18 7 -24 -9 -5
-11 -17 -6 -34 3 -16 2 -27 -4 -27 -14 0 -24 103 -11 111 19 12 -34 18 -55 6
-12 -6 -29 -12 -39 -14 -25 -4 -57 -22 -57 -32 0 -4 14 -6 30 -3 17 2 30 9 30
14 0 6 7 8 15 5 8 -4 17 -2 20 3 12 19 22 9 34 -32 9 -29 10 -43 3 -46 -6 -2
-8 -10 -5 -18 7 -20 -96 -126 -115 -119 -8 3 -12 0 -9 -7 2 -7 0 -21 -5 -31
-7 -14 -11 -15 -22 -5 -8 7 -11 17 -8 22 3 5 0 6 -6 2 -8 -5 -10 3 -6 26 4 25
3 29 -5 18 -8 -12 -10 -8 -5 16 4 19 1 34 -5 38 -6 4 -11 16 -11 26 0 24 -21
70 -31 70 -4 0 -14 -7 -23 -15 -8 -8 -32 -15 -53 -16 -21 0 -32 -3 -25 -6 18
-7 -47 -40 -89 -46 -19 -2 -26 -2 -16 0 9 2 17 9 17 15 0 6 -10 8 -26 4 -22
-6 -24 -4 -15 12 5 10 18 25 28 33 17 13 17 13 3 -6 -14 -19 -14 -19 3 -6 9 7
16 21 15 30 -2 10 4 15 16 14 12 -1 15 2 8 9 -12 12 35 101 49 92 5 -3 9 -2 8
3 -4 26 2 63 11 58 5 -3 7 0 5 8 -3 7 -2 24 4 38 8 20 10 15 16 -38 4 -35 11
-61 14 -58 4 2 13 -17 19 -42 13 -48 7 -62 -27 -63 -8 0 -12 -3 -8 -6 3 -3 21
0 39 6 l34 12 -29 112 c-15 61 -26 121 -24 133 3 16 0 20 -12 16 -14 -4 -14
-3 0 6 14 9 16 28 13 116 -2 58 -8 122 -14 142 -9 34 -8 40 12 56 l22 18 -25
-6 c-23 -6 -27 -2 -38 37 -14 45 -46 97 -68 111 -7 4 -13 16 -13 26 0 20 60
199 130 391 23 63 49 136 58 163 9 26 18 47 20 47 2 0 18 -6 35 -14z m117 -6
c0 -5 -4 -10 -10 -10 -5 0 -10 5 -10 10 0 6 5 10 10 10 6 0 10 -4 10 -10z
m200 -90 c0 -5 -2 -10 -4 -10 -3 0 -8 5 -11 10 -3 6 -1 10 4 10 6 0 11 -4 11
-10z m604 -166 c9 -8 16 -11 16 -5 0 6 7 11 15 11 8 0 15 -7 15 -16 0 -9 5
-12 12 -8 7 4 8 3 4 -5 -4 -6 -11 -9 -16 -6 -7 4 -50 -5 -139 -31 -42 -12 -20
29 29 53 54 27 45 26 64 7z m-238 -52 c32 5 63 7 71 4 7 -3 13 0 13 6 0 7 5 6
15 -2 23 -19 19 -25 -35 -50 -27 -13 -50 -27 -50 -32 0 -4 -6 -8 -14 -8 -8 0
-16 -3 -18 -7 -1 -5 -18 -18 -36 -31 l-32 -23 -10 26 c-5 13 -7 32 -3 42 4 11
3 14 -5 9 -8 -5 -12 3 -12 23 0 21 5 31 15 31 8 0 15 7 15 16 0 13 2 14 14 1
12 -11 27 -12 72 -5z m-261 -612 c3 -5 -1 -10 -10 -10 -9 0 -13 5 -10 10 3 6
8 10 10 10 2 0 7 -4 10 -10z m108 -361 c16 -28 35 -53 43 -56 8 -3 12 -9 9
-13 -15 -25 282 -337 310 -326 9 3 14 2 11 -2 -15 -25 220 -158 364 -207 176
-60 350 -80 545 -61 84 8 165 22 200 36 17 6 43 14 59 16 16 2 34 8 40 14 7 7
16 -5 28 -37 9 -25 15 -50 12 -55 -3 -4 1 -8 8 -8 9 0 14 -12 15 -32 1 -43 22
-120 31 -114 4 2 7 -14 8 -37 0 -22 5 -42 11 -44 6 -2 9 -12 6 -22 -3 -10 0
-22 6 -25 5 -4 8 -13 4 -21 -3 -10 1 -15 12 -15 9 0 14 -4 11 -9 -4 -5 0 -11
6 -14 10 -4 10 -7 1 -17 -10 -11 -8 -17 8 -31 17 -14 18 -19 6 -31 -14 -14
-11 -38 7 -51 8 -6 7 -10 -1 -14 -9 -3 -10 -10 -3 -22 5 -10 6 -22 2 -26 -4
-5 1 -5 11 -2 15 6 16 4 7 -13 -7 -12 -7 -20 -1 -20 5 0 9 -15 9 -32 -1 -57 5
-99 14 -104 4 -3 6 -9 3 -14 -3 -5 -1 -11 4 -15 6 -3 7 -13 4 -21 -3 -9 0 -20
8 -25 12 -8 12 -11 -1 -19 -9 -6 -11 -13 -5 -17 6 -5 10 -26 11 -48 1 -68 9
-125 16 -125 4 0 5 -6 3 -12 -3 -7 -7 -87 -10 -178 -5 -149 -9 -215 -14 -215
-1 0 -4 -20 -7 -45 -2 -25 -8 -54 -13 -65 -5 -11 -17 -42 -27 -70 -9 -27 -30
-72 -46 -100 -15 -27 -37 -69 -49 -92 -11 -24 -24 -43 -29 -43 -6 0 -10 -7
-10 -15 0 -8 -7 -15 -15 -15 -8 0 -15 -4 -15 -9 0 -10 -90 -102 -90 -92 0 3
-7 -3 -15 -13 -32 -42 -336 -198 -353 -181 -3 3 -10 1 -16 -4 -40 -31 -276
-79 -431 -86 -53 -3 -100 -7 -106 -10 -5 -4 -14 -3 -19 0 -6 3 -56 8 -113 10
-56 3 -115 6 -132 9 -16 2 -66 9 -110 15 -82 12 -170 36 -192 53 -7 5 -17 7
-23 3 -6 -4 -20 1 -32 12 -11 10 -21 16 -23 13 -4 -8 -146 63 -171 85 -12 11
-40 33 -61 50 -97 74 -177 213 -193 337 -5 42 -7 85 -5 97 4 22 -9 29 -21 10
-4 -7 -10 -7 -16 -1 -10 10 -58 4 -58 -8 0 -8 -24 -9 -216 -11 -89 0 -138 3
-151 12 -24 14 -57 5 -48 -13 4 -7 0 -5 -8 4 -18 23 -37 23 -37 1 0 -14 -2
-15 -9 -5 -5 9 -10 -3 -15 -35 -3 -26 -2 -49 3 -51 12 -4 -25 -125 -61 -197
-16 -33 -45 -75 -64 -94 -19 -19 -34 -38 -34 -43 0 -4 -6 -8 -14 -8 -8 0 -16
-3 -18 -7 -6 -14 -76 -63 -135 -93 -70 -37 -238 -96 -314 -110 -144 -28 -378
-42 -497 -30 -35 3 -66 2 -68 -2 -3 -5 -11 -5 -17 0 -7 5 -41 12 -77 15 -94 9
-104 11 -112 22 -5 6 -12 4 -18 -5 -7 -10 -10 -11 -10 -2 0 8 -9 11 -25 8 -15
-3 -25 0 -25 7 0 7 -4 6 -10 -3 -6 -10 -10 -11 -10 -2 0 6 -9 12 -19 12 -11 0
-23 5 -26 10 -3 6 -19 10 -34 10 -15 0 -31 4 -37 10 -5 5 -22 11 -36 12 -18 2
-24 7 -20 17 4 9 1 12 -7 7 -6 -4 -17 -3 -24 2 -7 5 -25 12 -41 16 -16 4 -45
18 -65 32 -19 13 -41 24 -47 24 -7 0 -15 7 -18 16 -3 8 -10 12 -16 9 -5 -3
-10 -2 -10 4 0 5 -6 11 -14 13 -8 2 -54 39 -102 83 -49 44 -92 79 -96 78 -4
-2 -7 0 -6 5 5 14 -54 102 -69 102 -8 0 -11 5 -8 10 3 6 -3 22 -13 38 -11 15
-27 43 -35 62 -8 19 -25 58 -38 85 -12 28 -24 61 -25 74 -2 13 -7 27 -11 30
-4 3 -9 17 -10 31 -2 35 -12 93 -18 108 -18 48 -31 379 -19 492 3 30 7 84 8
120 1 36 8 92 14 125 13 74 27 185 25 205 -1 8 2 17 7 20 4 3 11 41 15 85 4
44 11 83 17 86 5 3 9 15 7 25 -1 11 1 26 4 34 3 8 16 60 28 116 l22 101 77
-47 c96 -60 184 -96 355 -145 177 -51 550 -65 778 -29 15 2 39 6 55 8 15 1 45
8 67 14 22 6 69 18 105 27 119 30 382 125 405 146 5 5 15 9 23 9 8 0 25 9 39
20 14 11 32 20 39 20 12 0 31 11 118 66 l33 22 -17 -47 c-46 -121 -63 -165
-76 -189 -8 -15 -14 -35 -14 -44 0 -9 -5 -20 -11 -23 -6 -4 -8 -13 -5 -20 2
-7 0 -17 -5 -22 -12 -12 -13 -81 -1 -120 6 -18 9 -33 7 -33 -2 0 12 -15 31
-34 32 -31 39 -33 92 -31 68 3 91 8 100 21 4 5 21 18 37 28 17 11 45 37 64 58
18 21 36 37 39 34 3 -3 21 15 40 39 19 25 38 43 42 40 4 -3 19 13 34 34 15 21
38 43 51 49 14 7 25 17 25 25 0 14 35 47 50 47 5 0 12 11 16 25 3 14 13 25 20
25 8 0 17 7 20 15 4 8 12 15 20 15 12 0 18 11 16 31 -1 3 17 17 38 30 22 13
40 27 40 31 0 4 36 44 80 89 44 44 77 86 74 91 -4 6 -3 8 3 5 5 -3 19 4 31 16
13 12 74 74 137 137 63 63 127 132 141 153 15 20 29 37 33 37 3 0 19 -23 34
-51z m-233 -25 c0 -2 -7 -4 -15 -4 -8 0 -15 4 -15 10 0 5 7 7 15 4 8 -4 15 -8
15 -10z m-31 -40 c-13 -16 -49 -14 -49 3 0 9 11 12 29 11 22 -2 27 -5 20 -14z
m-335 -121 c9 -26 16 -55 16 -65 0 -10 5 -18 11 -18 6 0 8 -9 4 -20 -4 -11 -3
-20 2 -19 20 3 23 -2 12 -22 -8 -15 -8 -19 0 -15 27 17 5 -11 -61 -80 -89 -91
-101 -99 -122 -78 -9 8 -16 20 -16 25 0 6 7 3 16 -5 24 -25 26 -19 4 17 -11
17 -20 40 -20 50 0 9 -8 18 -17 18 -17 1 -17 2 0 6 19 5 21 12 8 32 -7 11 -11
10 -20 -5 -9 -15 -10 -10 -5 24 4 26 3 42 -4 42 -6 0 -12 -6 -15 -12 -2 -7 -4
-1 -3 14 0 16 4 28 8 28 4 0 21 -30 38 -67 17 -38 37 -78 43 -91 14 -30 43
-46 53 -30 4 7 3 8 -5 4 -6 -4 -14 0 -17 11 -8 23 -32 73 -44 93 -14 21 -60
127 -60 137 0 4 34 19 76 33 41 13 78 28 80 32 11 18 23 6 38 -39z m-247 -35
c-3 -7 -5 -2 -5 12 0 14 2 19 5 13 2 -7 2 -19 0 -25z m-14 -53 c14 -24 28 -58
32 -75 4 -17 12 -33 19 -36 6 -2 13 -15 14 -27 1 -20 -8 -25 -72 -45 -88 -27
-86 -26 -86 -3 0 36 -22 82 -36 77 -8 -3 -14 -1 -14 4 0 6 -5 10 -11 10 -5 0
-7 -4 -4 -10 3 -5 1 -10 -4 -10 -19 0 -12 28 9 33 13 3 18 1 13 -5 -3 -7 -1
-8 6 -4 6 4 9 12 5 17 -4 7 92 119 102 119 1 0 14 -20 27 -45z m-139 -160 c-4
-8 -11 -15 -16 -15 -6 0 -5 6 2 15 7 8 14 15 16 15 2 0 1 -7 -2 -15z m16 -32
c1 -19 40 -54 52 -47 7 4 32 7 57 5 42 -3 44 -1 31 15 -14 15 -13 16 8 10 16
-6 22 -3 22 8 0 19 16 21 23 4 4 -10 8 -9 16 2 8 12 11 5 11 -29 0 -30 -4 -42
-12 -38 -8 3 -14 -6 -15 -25 -1 -16 2 -26 7 -23 22 13 8 -4 -36 -45 -35 -33
-45 -38 -40 -22 5 13 3 22 -3 22 -6 0 -11 -11 -11 -24 0 -14 -3 -27 -7 -29 -5
-3 -8 11 -8 31 0 38 0 38 48 25 11 -4 17 0 17 11 0 9 5 16 11 16 6 0 8 9 4 23
-12 36 -22 41 -50 23 -18 -12 -36 -15 -52 -11 -28 7 -28 10 -4 -112 6 -31 5
-46 -5 -54 -10 -8 -14 -2 -19 28 -9 61 -26 116 -41 140 -9 14 -12 34 -8 50 4
22 3 25 -5 13 -9 -12 -11 -10 -11 13 0 15 5 27 10 27 6 0 10 -3 10 -7z m-100
-37 c-20 -20 -10 -28 16 -11 24 16 26 16 39 -2 12 -16 11 -19 -12 -25 -15 -4
-30 -5 -35 -2 -4 3 -5 -3 -1 -13 6 -17 6 -17 -14 0 -12 10 -20 26 -18 35 2 9
4 20 4 23 1 3 8 6 16 6 11 0 12 -4 5 -11z m-14 -66 c8 -18 11 -18 41 -4 31 16
33 15 57 -12 18 -21 25 -41 26 -69 0 -23 5 -46 11 -52 14 -14 1 -36 -17 -29
-16 6 -18 -3 -4 -24 6 -10 10 -11 10 -2 0 6 4 12 9 12 15 0 0 -40 -19 -50 -10
-6 -26 -18 -36 -27 -17 -17 -18 -17 -11 0 3 9 2 17 -3 17 -6 0 -10 -7 -10 -17
0 -9 -3 -14 -6 -10 -9 8 -64 -21 -64 -34 0 -6 -4 -7 -10 -4 -5 3 -10 1 -10 -5
0 -6 -4 -9 -8 -6 -7 4 -42 -27 -42 -38 0 -3 9 -4 19 -3 10 0 17 6 15 12 -3 6
5 11 16 11 26 0 25 -8 -2 -26 -32 -21 -58 -31 -58 -22 0 4 -10 12 -22 17 -31
14 -33 54 -7 135 43 132 79 197 79 142 0 -10 3 -22 7 -26 11 -10 33 -89 27
-95 -9 -9 -33 35 -35 64 -1 25 -2 26 -6 7 -4 -21 -6 -22 -16 -8 -11 14 -12 14
-13 -6 0 -13 -4 -32 -8 -43 -5 -14 -3 -13 7 4 15 24 15 22 8 -68 -1 -7 -7 -11
-16 -8 -19 8 -30 -12 -15 -26 9 -9 16 -7 30 11 10 12 25 22 33 22 7 0 22 9 31
19 13 14 27 18 57 15 24 -2 39 1 39 7 0 6 7 9 14 6 10 -4 13 -1 9 9 -6 17 -25
18 -41 2 -31 -31 -46 -11 -87 122 -10 33 -13 56 -7 58 5 1 8 12 5 22 -7 26 11
26 23 0z m204 -31 c0 -5 -4 -9 -10 -9 -5 0 -10 7 -10 16 0 8 5 12 10 9 6 -3
10 -10 10 -16z m60 -11 c0 -13 -23 -5 -28 10 -2 7 2 10 12 6 9 -3 16 -11 16
-16z"/>
<path d="M7820 7180 c0 -5 5 -10 11 -10 5 0 7 5 4 10 -3 6 -8 10 -11 10 -2 0
-4 -4 -4 -10z"/>
<path d="M6230 6860 c-18 -5 -39 -15 -45 -22 -5 -8 -18 -17 -28 -21 -43 -16
-71 -171 -46 -251 19 -60 37 -84 84 -111 67 -40 148 -33 210 18 46 38 77 105
66 144 -4 15 -6 33 -4 40 8 22 -29 126 -52 147 -50 46 -54 48 -127 60 -13 2
-39 0 -58 -4z"/>
<path d="M5045 6765 c-27 -6 -64 -19 -81 -28 -29 -15 -93 -79 -95 -95 0 -4 -3
-19 -5 -34 -11 -64 61 -137 166 -168 56 -17 70 -25 70 -41 0 -31 -26 -73 -53
-88 -39 -21 -108 16 -132 69 -33 73 -101 41 -70 -33 13 -30 74 -96 93 -98 4 0
18 -3 32 -5 67 -13 113 -2 158 39 12 11 22 16 22 10 0 -6 20 -19 44 -28 74
-29 157 -1 211 69 44 57 27 142 -26 134 -20 -2 -25 -10 -30 -47 -6 -48 -53
-101 -89 -101 -30 0 -70 41 -76 80 -6 34 -4 36 41 58 72 35 110 68 130 112 45
100 -44 192 -197 203 -35 3 -85 -1 -113 -8z m51 -39 c19 -14 19 -15 -2 -43
-16 -21 -30 -28 -55 -28 -19 0 -44 -6 -56 -13 -31 -17 -53 -15 -53 6 0 24 23
44 80 70 55 25 61 26 86 8z"/>
<path d="M3865 6703 c-49 -17 -99 -64 -112 -106 -5 -18 -9 -64 -9 -102 1 -60
6 -78 31 -118 62 -99 177 -118 274 -47 47 35 69 88 65 158 -4 82 -7 93 -31
132 -51 82 -133 113 -218 83z"/>
<path d="M5814 5168 c-12 -5 -30 -27 -39 -49 -15 -33 -16 -43 -5 -69 39 -95
155 -59 155 47 0 68 -51 101 -111 71z"/>
<path d="M6081 5012 c-25 -48 33 -103 84 -80 28 13 44 53 26 71 -8 8 -17 5
-32 -12 l-22 -23 -13 31 c-15 35 -29 39 -43 13z"/>
<path d="M6405 4985 c-50 -49 -23 -155 40 -155 14 0 39 13 56 28 39 34 46 97
15 131 -27 30 -80 28 -111 -4z"/>
<path d="M5501 4574 c0 -11 3 -14 6 -6 3 7 2 16 -1 19 -3 4 -6 -2 -5 -13z"/>
<path d="M5552 4445 c0 -11 4 -31 8 -45 l8 -25 0 25 c0 14 -3 34 -8 45 l-9 20
1 -20z"/>
<path d="M5571 4360 c0 -8 4 -22 9 -30 12 -18 12 -2 0 25 -6 13 -9 15 -9 5z"/>
<path d="M5499 4283 c-3 -18 -2 -33 2 -33 13 0 16 14 9 40 -6 24 -7 24 -11 -7z"/>
<path d="M5801 4299 l-24 -9 23 -25 c29 -31 45 -32 29 -3 -9 16 -9 23 0 26 12
4 16 22 4 21 -5 0 -19 -5 -32 -10z"/>
<path d="M5537 4196 c4 -19 8 -22 17 -13 18 16 15 37 -4 37 -13 0 -16 -6 -13
-24z"/>
<path d="M5611 4194 c0 -16 4 -38 9 -49 6 -13 7 -5 3 25 -7 53 -13 66 -12 24z"/>
<path d="M5478 4203 c7 -3 16 -2 19 1 4 3 -2 6 -13 5 -11 0 -14 -3 -6 -6z"/>
<path d="M5836 4157 c5 -40 3 -50 -12 -62 -17 -12 -16 -13 9 -8 25 5 27 9 24
42 -2 20 -9 45 -16 56 -9 17 -10 12 -5 -28z"/>
<path d="M5400 4180 c-9 -6 -10 -10 -3 -10 6 0 15 5 18 10 8 12 4 12 -15 0z"/>
<path d="M5345 4159 c-4 -6 -4 -13 -1 -16 3 -4 6 -1 6 5 0 6 8 13 18 15 15 4
15 5 0 6 -9 0 -20 -4 -23 -10z"/>
<path d="M5352 4095 c0 -16 2 -22 5 -12 2 9 2 23 0 30 -3 6 -5 -1 -5 -18z"/>
<path d="M5632 4100 c0 -28 14 -65 20 -55 3 6 0 24 -7 40 -7 17 -13 23 -13 15z"/>
<path d="M5570 4037 c0 -15 -102 -47 -149 -47 -16 0 -32 6 -35 13 -3 6 -5 3
-3 -8 3 -23 24 -23 130 1 53 13 67 20 67 35 0 10 -2 19 -5 19 -3 0 -5 -6 -5
-13z"/>
<path d="M5788 4043 c-10 -2 -18 -8 -18 -13 0 -10 38 -1 46 11 5 9 1 10 -28 2z"/>
<path d="M5730 4020 c-8 -5 -10 -10 -5 -10 6 0 17 5 25 10 8 5 11 10 5 10 -5
0 -17 -5 -25 -10z"/>
<path d="M5595 3940 c6 -47 19 -69 32 -55 5 4 2 10 -5 12 -6 3 -10 9 -7 13 3
5 -1 24 -10 42 l-15 33 5 -45z"/>
<path d="M5671 3949 c0 -19 4 -43 9 -54 6 -13 7 -2 3 30 -7 59 -13 72 -12 24z"/>
<path d="M5236 3921 c-4 -5 3 -7 14 -4 23 6 26 13 6 13 -8 0 -17 -4 -20 -9z"/>
<path d="M5401 3916 c-8 -10 -9 -16 -1 -21 5 -3 10 1 10 10 0 10 5 13 12 9 7
-4 8 -3 4 4 -9 15 -11 15 -25 -2z"/>
<path d="M5326 3902 c-7 -12 3 -42 14 -42 4 0 10 -15 13 -32 10 -59 35 -143
36 -120 1 29 -37 184 -49 195 -4 5 -11 4 -14 -1z"/>
<path d="M5631 3860 c0 -8 6 -28 14 -45 7 -16 14 -23 14 -15 0 8 -6 29 -14 45
-7 17 -14 23 -14 15z"/>
<path d="M5653 3722 c-8 -5 -9 -13 -3 -22 6 -8 10 -10 11 -5 0 6 4 -1 8 -15 4
-14 4 -37 0 -52 -6 -21 -1 -40 22 -80 16 -29 29 -69 29 -88 1 -32 2 -33 14
-17 17 22 6 70 -63 269 -4 11 -11 14 -18 10z"/>
<path d="M5455 3651 c-3 -5 -1 -12 5 -16 5 -3 10 1 10 9 0 18 -6 21 -15 7z"/>
<path d="M5405 3620 c3 -5 8 -10 11 -10 2 0 4 5 4 10 0 6 -5 10 -11 10 -5 0
-7 -4 -4 -10z"/>
<path d="M5481 3541 c-1 -35 38 -161 50 -161 6 0 8 8 5 18 -14 45 -24 106 -21
123 2 11 -2 19 -10 19 -7 0 -16 6 -18 13 -3 6 -6 1 -6 -12z"/>
<path d="M5536 3534 c-5 -14 -4 -15 9 -4 17 14 19 20 6 20 -5 0 -12 -7 -15
-16z"/>
<path d="M5423 3500 c1 -22 5 -40 10 -40 4 0 5 -4 2 -10 -3 -5 -1 -10 6 -10 7
0 10 -13 7 -34 -2 -19 -1 -34 2 -34 19 2 21 -5 5 -22 -18 -20 -18 -21 1 -14
10 4 22 9 26 11 3 1 -1 27 -9 56 -8 28 -19 71 -25 95 -12 53 -27 55 -25 2z"/>
<path d="M5165 3309 c-16 -30 -16 -32 -2 -20 10 7 17 21 18 30 1 9 4 5 8 -9 4
-14 10 -20 14 -14 3 6 0 19 -7 29 -13 18 -15 17 -31 -16z"/>
<path d="M5330 3250 c0 -5 4 -10 9 -10 6 0 13 5 16 10 3 6 -1 10 -9 10 -9 0
-16 -4 -16 -10z"/>
<path d="M5340 3219 c0 -5 5 -7 10 -4 6 3 10 8 10 11 0 2 -4 4 -10 4 -5 0 -10
-5 -10 -11z"/>
<path d="M5286 2973 c-6 -14 -5 -15 5 -6 7 7 10 15 7 18 -3 3 -9 -2 -12 -12z"/>
<path d="M9279 8192 c-94 -49 -134 -166 -98 -281 13 -38 5 -47 -44 -58 -16 -3
-31 -12 -34 -19 -3 -8 -9 -12 -13 -9 -5 3 -17 -5 -27 -18 -10 -13 -28 -29 -41
-36 -12 -6 -22 -20 -22 -30 0 -20 -22 -43 -36 -39 -5 1 -25 -1 -45 -5 -35 -7
-109 -67 -109 -88 0 -6 -8 -6 -20 1 -11 6 -25 8 -30 5 -6 -3 -10 -2 -10 4 0
13 -66 6 -108 -11 -18 -8 -29 -18 -25 -22 4 -4 1 -5 -7 -1 -10 3 -27 -12 -49
-45 -31 -45 -35 -58 -33 -113 0 -34 2 -71 4 -82 7 -35 39 -80 75 -105 l35 -24
-6 -86 c-4 -47 -9 -123 -12 -170 -3 -47 -7 -107 -9 -135 -14 -169 -21 -446
-12 -481 11 -44 33 -65 82 -79 109 -31 791 -133 928 -139 37 -2 70 -6 74 -9
10 -10 63 -8 63 2 0 5 9 7 20 4 11 -3 20 0 20 6 0 6 5 10 11 9 15 -4 47 42 54
77 3 17 12 53 19 80 11 42 17 50 37 50 13 0 27 5 31 10 5 6 8 6 8 -1 0 -11 55
-4 100 13 8 4 18 5 23 5 4 -1 7 2 7 8 0 5 7 10 15 10 8 0 15 5 15 11 0 5 5 7
10 4 6 -3 10 -1 10 5 0 6 5 8 10 5 6 -3 10 -1 10 5 0 6 5 8 12 4 8 -5 9 -2 5
10 -6 14 -3 17 9 12 12 -5 15 -2 10 10 -4 10 -1 14 6 12 26 -9 47 26 46 75 0
41 -2 45 -13 30 -10 -13 -10 -20 -2 -25 8 -5 7 -8 -3 -8 -8 0 -26 -14 -40 -31
-14 -16 -40 -39 -58 -50 -17 -12 -30 -24 -27 -29 3 -4 -1 -7 -8 -7 -15 2 -97
-21 -117 -32 -8 -4 -26 -4 -39 0 -12 5 -26 7 -31 4 -4 -3 -4 10 0 29 4 19 5
46 3 60 -4 17 -1 26 8 26 7 0 9 3 6 7 -9 9 42 55 54 48 5 -4 9 2 9 12 0 14 2
15 9 5 7 -12 13 -11 37 1 40 22 102 76 86 77 -7 0 -10 5 -7 10 4 6 11 7 17 4
6 -4 8 1 3 16 -4 14 -3 20 3 16 12 -7 22 16 22 55 0 16 -5 29 -12 29 -9 0 -9
3 1 9 12 8 11 14 -5 42 -11 18 -33 40 -49 50 -33 19 -115 25 -115 8 0 -5 -4
-8 -9 -5 -18 12 -38 -43 -65 -179 -15 -77 -29 -151 -31 -165 -2 -14 -9 -47
-14 -73 -6 -27 -10 -51 -9 -55 1 -4 -1 -14 -4 -22 -4 -8 -14 -53 -23 -100 -9
-47 -19 -92 -21 -101 -8 -29 -90 -31 -256 -9 -84 12 -172 23 -195 25 -23 3
-59 8 -80 13 -21 5 -57 8 -81 8 -23 -1 -43 2 -45 6 -1 4 -27 10 -57 12 -30 3
-55 6 -55 7 0 1 -9 3 -20 4 -37 6 -150 24 -180 30 -16 3 -54 10 -84 15 -35 7
-61 18 -76 34 -13 14 -21 26 -20 28 2 2 6 34 10 71 4 47 2 67 -6 67 -8 0 -8 4
1 15 9 11 9 15 1 15 -7 0 -9 5 -5 12 10 17 13 43 20 188 8 187 12 238 16 247
3 4 4 38 4 76 -1 37 2 67 6 67 8 0 5 21 -5 38 -5 7 -3 12 3 12 8 0 11 14 8 40
-2 22 0 40 5 40 5 0 7 6 4 13 -4 11 10 13 62 12 37 -1 73 -5 80 -9 7 -5 50 -9
96 -11 45 -1 88 -6 94 -9 6 -4 11 -1 11 6 0 8 3 9 8 3 10 -15 38 -12 34 4 -1
7 2 10 7 6 6 -3 8 -11 5 -18 -3 -9 8 -12 41 -12 25 1 45 -3 45 -8 0 -5 8 -3
17 4 9 8 14 9 10 3 -4 -8 15 -14 61 -19 37 -4 74 -8 82 -10 75 -14 172 -25
180 -20 5 3 10 0 10 -7 0 -10 2 -10 9 1 5 8 10 9 12 3 4 -11 115 -34 172 -36
15 0 27 -5 27 -10 0 -4 6 -6 14 -3 8 3 17 3 20 -1 4 -3 13 -7 20 -8 58 -8 124
-36 129 -54 3 -11 2 -20 -2 -20 -4 0 -8 -7 -8 -15 0 -8 6 -15 14 -15 7 0 13 9
13 20 0 11 7 23 16 27 8 3 13 12 10 19 -4 10 1 11 20 4 17 -7 32 -6 44 0 16 8
18 8 14 -5 -4 -10 0 -15 13 -15 10 0 39 -11 64 -25 26 -13 49 -21 53 -18 3 4
6 0 6 -8 0 -9 6 -23 13 -33 12 -17 14 -14 15 22 1 32 -3 44 -20 56 -12 8 -25
13 -30 10 -4 -3 -8 2 -8 12 0 11 -6 15 -20 11 -11 -3 -20 -1 -20 3 0 5 -20 12
-45 16 -46 6 -51 13 -46 66 2 19 -36 100 -53 110 -7 5 -3 15 11 30 32 34 42
69 39 139 -2 60 -18 104 -41 121 -5 4 -10 13 -10 20 0 7 -10 17 -22 23 -13 5
-23 13 -23 17 0 5 -7 8 -15 8 -8 0 -15 4 -15 10 0 5 -19 15 -42 21 -24 7 -44
13 -46 15 -1 1 3 13 9 28 15 32 -5 102 -33 117 -22 12 -24 47 -2 56 9 3 11 9
6 12 -5 3 -11 26 -12 51 -4 77 -1 100 15 100 8 0 15 4 15 9 0 5 8 7 19 4 10
-2 25 3 34 11 11 12 17 13 20 3 4 -8 8 -8 14 -2 9 11 23 16 67 21 17 2 32 8
35 12 3 4 16 7 29 6 12 -1 25 2 27 6 3 5 26 6 51 3 29 -3 49 0 54 7 4 6 7 -2
8 -17 1 -15 3 -39 5 -53 2 -14 -2 -31 -7 -39 -8 -11 -8 -13 2 -7 6 4 12 3 12
-1 0 -5 -10 -13 -22 -18 -13 -6 -24 -18 -26 -29 -4 -16 -2 -17 13 -5 62 51 66
58 63 107 -2 31 -7 46 -15 45 -7 -2 -13 4 -13 12 0 32 -60 39 -155 18 -11 -2
-26 -5 -33 -7 -8 -1 -18 -9 -23 -17 -8 -12 -10 -12 -19 1 -6 9 -10 10 -10 3 0
-7 -9 -10 -22 -8 -12 3 -27 0 -35 -6 -7 -7 -13 -9 -13 -6 0 3 -26 -1 -57 -8
l-58 -14 -25 29 c-26 31 -94 60 -139 60 -15 0 -43 -8 -63 -18 -33 -17 -36 -17
-46 -2 -16 26 -76 50 -125 50 -30 0 -63 -9 -98 -28z m187 -79 l31 -36 36 27
c31 24 43 27 89 23 33 -3 52 -9 51 -16 -2 -6 0 -10 5 -10 20 3 23 -3 11 -18
-12 -15 -12 -16 4 -10 26 10 47 -45 38 -98 -5 -32 -8 -36 -14 -21 -10 26 -26
9 -29 -29 -3 -48 -41 -62 -59 -22 -7 17 -8 9 -5 -33 3 -32 2 -49 -3 -41 -6 9
-11 10 -15 2 -4 -6 -5 -15 -2 -19 3 -5 -7 -7 -22 -4 -19 2 -33 -3 -46 -17 -22
-24 -51 -28 -42 -6 8 21 -21 19 -32 -2 -6 -11 -16 -14 -28 -9 -16 6 -16 8 -4
16 13 8 12 10 -2 10 -10 0 -18 -4 -18 -10 0 -17 -18 -11 -24 8 -7 20 -36 26
-36 8 -1 -6 -6 -1 -13 11 -7 12 -16 21 -22 20 -5 0 -24 18 -42 41 -22 30 -33
57 -38 94 -6 59 6 114 24 110 7 -1 10 2 7 7 -4 5 5 21 19 35 14 14 25 21 25
17 0 -5 11 -6 25 -3 14 2 22 8 19 13 -3 5 14 7 38 4 34 -4 50 -13 74 -42z
m244 -183 c0 -11 -4 -20 -9 -20 -5 0 -7 9 -4 20 3 11 7 20 9 20 2 0 4 -9 4
-20z m74 -141 c7 -38 -14 -91 -45 -113 -23 -16 -23 -16 21 -16 100 0 168 -39
206 -119 31 -64 28 -127 -7 -175 -12 -16 -16 -25 -9 -21 9 5 11 4 6 -3 -4 -7
-13 -12 -21 -12 -8 0 -2 -21 21 -62 18 -35 34 -75 34 -90 0 -25 -2 -26 -32
-18 -31 9 -65 16 -113 25 -11 2 -63 13 -115 24 -52 11 -118 23 -146 26 -28 3
-61 8 -75 11 -69 15 -71 15 -63 2 4 -7 -1 -6 -12 3 -10 9 -34 16 -52 15 -17 0
-32 3 -32 7 0 5 -15 7 -33 6 -18 -2 -37 -1 -42 3 -6 3 -26 6 -45 7 -46 2 -110
9 -135 15 -11 2 -32 5 -47 5 l-27 1 15 36 c8 20 10 33 5 29 -6 -3 -11 -1 -11
4 0 6 4 11 9 11 6 0 8 9 6 20 -2 11 0 20 6 20 5 0 8 3 8 8 -6 35 47 63 106 56
50 -6 100 22 107 60 3 15 2 28 -1 30 -3 3 -6 29 -5 60 1 54 17 91 35 80 5 -3
9 0 9 5 0 15 -13 14 -29 -1 -11 -11 -13 -10 -9 1 2 8 17 18 32 22 22 6 27 5
22 -7 -4 -11 -2 -13 10 -6 11 6 33 4 62 -4 25 -8 65 -14 90 -14 97 0 244 59
258 103 8 25 30 6 38 -34z m-508 -35 c-10 -9 -15 -23 -12 -30 3 -7 1 -16 -4
-19 -6 -4 -10 -1 -10 4 0 6 -5 11 -11 11 -5 0 -7 -4 -4 -10 3 -5 2 -10 -3 -10
-5 0 -7 -31 -6 -70 3 -61 1 -71 -17 -84 -13 -9 -35 -13 -56 -10 -41 5 -106
-13 -97 -27 3 -5 11 -6 17 -2 7 4 6 0 -2 -10 -15 -18 -26 -23 -16 -7 10 16
-11 12 -25 -4 -12 -15 -41 -107 -43 -138 -1 -9 -5 -14 -9 -12 -5 3 -19 -4 -33
-14 -28 -22 -55 -19 -79 7 -14 15 -14 22 -1 65 11 36 12 59 5 93 -27 119 17
174 139 177 19 1 26 8 33 32 13 52 108 134 141 121 7 -2 21 -1 32 3 15 5 28 0
49 -21 27 -26 28 -29 12 -45z m-510 -183 c24 4 34 -3 34 -24 0 -13 3 -27 7
-31 13 -13 22 -136 10 -136 -4 0 -6 -4 -3 -8 10 -16 -11 -31 -44 -33 -41 -2
-104 -19 -96 -26 3 -3 -1 -12 -9 -20 -39 -38 -92 35 -89 122 2 57 12 95 25 95
5 0 9 7 9 16 0 9 5 12 12 8 7 -5 9 -2 5 9 -4 11 -2 14 7 11 8 -3 17 -1 21 5 3
6 19 11 35 11 16 0 32 5 35 10 5 8 11 8 20 0 7 -6 17 -10 21 -9z m1283 -706
c16 -8 34 -28 41 -46 19 -44 0 -132 -34 -164 -14 -13 -22 -25 -20 -28 3 -3 -2
-4 -12 -3 -9 0 -19 -5 -22 -13 -3 -9 0 -11 8 -6 9 5 11 4 6 -4 -5 -8 -12 -9
-20 -2 -7 6 -21 8 -33 5 -16 -4 -21 0 -25 20 -3 14 -2 29 3 33 4 4 11 35 14
68 4 33 9 63 12 68 2 4 -2 7 -9 8 -10 0 -10 2 0 6 6 2 12 8 12 13 0 5 4 20 10
34 11 30 29 32 69 11z"/>
<path d="M9702 8000 c0 -14 2 -19 5 -12 2 6 2 18 0 25 -3 6 -5 1 -5 -13z"/>
<path d="M9075 6929 c-23 -44 -8 -79 35 -79 61 0 68 101 8 108 -22 3 -30 -3
-43 -29z"/>
<path d="M9389 6896 c-22 -48 11 -97 53 -81 24 10 39 51 28 80 -13 35 -66 36
-81 1z"/>
<path d="M9228 6859 c-30 -34 -27 -59 7 -59 13 0 25 -5 27 -11 2 -7 13 -3 27
8 l23 19 -24 36 c-12 21 -25 37 -28 37 -3 0 -17 -13 -32 -30z"/>
<path d="M374 6542 c-35 -23 -88 -77 -144 -148 -27 -34 -79 -157 -94 -224 -8
-36 -15 -92 -15 -125 -1 -33 -1 -75 -1 -92 -1 -42 39 -181 61 -213 9 -14 26
-40 37 -59 l20 -34 -55 -54 c-66 -66 -95 -126 -96 -202 -1 -84 6 -107 53 -178
37 -57 41 -68 31 -89 -16 -36 -14 -125 5 -170 15 -37 15 -38 -8 -56 -12 -9
-29 -18 -35 -18 -7 0 -13 -5 -13 -11 0 -5 -4 -8 -8 -5 -4 2 -31 -19 -60 -49
l-52 -53 1 -88 c1 -86 7 -89 23 -9 3 11 5 21 7 23 1 1 2 6 3 10 1 10 79 108
86 108 3 0 23 12 45 27 62 40 85 42 130 12 30 -21 36 -23 24 -7 -52 70 -77
101 -80 98 -2 -2 -5 12 -6 32 -1 20 -6 38 -10 39 -5 2 -6 29 -3 61 3 31 8 56
12 54 4 -2 32 -14 61 -27 70 -33 140 -45 218 -40 65 5 229 53 229 67 0 4 6 8
14 8 8 0 21 6 28 13 7 7 15 14 18 14 15 3 66 29 71 37 9 11 79 -2 79 -14 0 -6
3 -9 8 -8 9 2 40 -10 75 -28 15 -8 27 -12 27 -8 0 12 70 -70 95 -111 34 -56
55 -158 46 -217 -4 -27 -6 -48 -4 -48 3 0 -5 -13 -16 -29 -12 -16 -21 -33 -21
-38 0 -5 -13 -17 -30 -26 -34 -21 -41 -48 -10 -42 11 2 20 -1 20 -8 0 -8 3 -8
11 0 12 12 49 6 49 -8 0 -5 6 -9 14 -9 24 0 123 -106 136 -146 7 -22 17 -45
23 -52 11 -14 14 -131 5 -172 -13 -61 -36 -94 -68 -102 -15 -3 -30 -17 -30
-29 0 -3 16 -5 34 -4 19 1 33 -2 30 -7 -5 -8 10 -12 35 -9 7 2 10 -2 6 -8 -3
-6 -2 -11 3 -11 8 0 75 -63 97 -92 37 -47 65 -154 59 -221 -9 -91 -20 -115
-67 -151 -22 -17 -37 -40 -46 -73 -18 -60 -70 -113 -112 -113 -19 0 -52 16
-90 43 -56 39 -65 42 -126 42 -64 0 -66 -1 -99 -39 -41 -48 -82 -76 -109 -76
-12 0 -39 9 -60 20 -103 53 -225 65 -283 30 -33 -20 -97 -102 -97 -123 0 -7
-7 -19 -15 -28 -8 -9 -35 -39 -59 -68 -32 -38 -63 -61 -109 -82 -95 -43 -102
-42 -264 39 -5 2 -8 -74 -8 -170 0 -167 1 -175 26 -225 38 -74 79 -120 115
-128 26 -6 35 -17 61 -73 74 -165 240 -492 249 -492 6 0 8 -4 5 -9 -5 -8 90
-203 179 -366 44 -82 156 -288 193 -355 116 -214 142 -248 192 -255 3 0 10 -4
17 -8 6 -4 18 -1 26 7 8 8 17 12 21 9 10 -10 39 21 57 62 9 22 20 65 24 95 4
30 11 78 17 105 5 28 11 64 13 80 10 97 16 156 21 205 2 30 7 65 9 77 3 12 7
50 10 85 3 35 8 81 10 103 3 22 8 63 11 90 3 28 7 64 10 80 2 17 6 66 9 109 2
44 7 86 10 95 4 15 12 94 20 196 2 22 7 76 11 120 5 44 8 101 9 128 0 26 3 47
6 47 3 0 6 14 7 31 1 33 23 65 51 74 9 3 29 29 43 58 29 55 31 74 43 387 3 74
9 146 12 160 3 14 24 42 45 63 21 21 36 42 33 47 -3 6 -2 10 4 10 28 0 45 159
28 258 -11 70 -95 200 -119 186 -4 -3 -8 0 -8 7 0 16 -31 38 -54 39 -13 0 -16
4 -11 18 62 140 60 258 -3 377 -31 57 -102 129 -147 146 -16 7 -31 13 -33 14
-1 1 9 32 23 68 20 55 24 80 21 144 -2 43 -9 92 -16 108 -7 17 -14 35 -15 41
-4 17 -59 99 -70 103 -5 2 -21 16 -35 31 -35 36 -90 67 -155 85 -30 9 -55 19
-55 23 0 4 7 29 15 56 32 105 11 250 -50 341 -54 82 -112 128 -174 141 -7 1
-18 7 -24 13 -14 14 -112 14 -179 0 -68 -15 -116 -39 -163 -83 -21 -20 -41
-33 -46 -30 -26 15 -82 139 -95 208 -11 58 -10 181 3 230 7 27 10 53 7 58 -3
4 -1 8 4 8 6 0 13 16 16 35 4 19 12 40 19 47 7 7 19 28 26 46 7 17 17 32 22
32 5 0 9 4 9 9 0 16 54 66 103 94 26 15 47 31 48 35 0 4 2 15 4 25 3 15 -29
48 -45 46 -3 0 -23 -12 -46 -27z m335 -817 c19 -9 45 -29 58 -43 38 -41 101
-174 75 -158 -6 3 -3 -17 6 -46 13 -40 14 -52 4 -56 -6 -2 -12 -10 -12 -18 0
-9 -5 -12 -11 -8 -9 5 -10 -8 -6 -47 5 -38 4 -47 -3 -31 -5 12 -12 22 -15 22
-4 0 -4 -10 -1 -22 3 -13 3 -17 0 -10 -8 17 -27 15 -20 -3 3 -9 -3 -19 -14
-25 -11 -6 -23 -22 -26 -36 -4 -14 -9 -23 -12 -20 -3 3 -11 -3 -19 -14 -9 -13
-22 -18 -43 -15 -17 2 -28 0 -25 -5 3 -5 12 -7 19 -4 8 3 17 0 22 -7 5 -8 3
-10 -6 -4 -8 5 -18 2 -25 -8 -14 -20 -118 -38 -157 -26 -17 5 -28 4 -28 -2 0
-6 -5 -7 -11 -3 -6 3 -15 0 -20 -7 -5 -9 -9 -10 -9 -2 0 6 -14 15 -32 18 -72
16 -168 74 -168 100 0 6 5 3 11 -5 7 -10 9 -11 7 -2 -2 8 -6 12 -9 10 -10 -5
-39 24 -33 33 3 5 -2 9 -11 9 -12 0 -14 7 -9 28 4 21 3 24 -5 12 -6 -8 -11
-12 -11 -8 0 3 -3 14 -6 22 -5 12 -2 15 12 10 13 -4 12 -1 -4 8 -12 8 -20 17
-17 20 3 3 8 25 11 49 3 24 8 46 12 49 4 3 12 14 18 24 17 32 79 58 156 65
l71 6 12 48 c14 54 31 75 90 107 47 25 130 23 184 -5z m148 -361 c-3 -3 -12
-4 -19 -1 -8 3 -5 6 6 6 11 1 17 -2 13 -5z m-67 -98 c0 -3 -4 -8 -10 -11 -5
-3 -10 -1 -10 4 0 6 5 11 10 11 6 0 10 -2 10 -4z m-53 -70 c0 -8 -6 -12 -15
-8 -11 4 -13 1 -7 -8 6 -9 4 -11 -5 -5 -10 6 -9 11 5 22 23 16 22 16 22 -1z
m369 -1791 c6 -14 8 -14 18 1 11 15 15 14 47 -5 19 -11 30 -21 26 -21 -5 0 -2
-7 7 -15 8 -9 19 -15 23 -14 4 1 16 -1 26 -6 16 -7 89 -3 127 6 13 3 15 -13
14 -106 -3 -183 -10 -233 -40 -272 -31 -41 -61 -54 -132 -59 -29 -2 -57 -6
-62 -9 -6 -3 -10 1 -10 9 0 9 -5 16 -10 16 -6 0 -9 -5 -8 -12 3 -13 -15 -17
-182 -47 -188 -33 -197 -33 -203 -11 -3 11 -11 20 -19 19 -10 0 -10 -2 0 -6 6
-2 12 -11 12 -18 0 -12 -13 -15 -110 -29 -19 -3 -91 -15 -160 -26 -69 -12
-150 -26 -180 -31 -30 -5 -74 -13 -97 -17 -38 -8 -44 -7 -66 17 -29 33 -61
106 -53 120 4 6 3 11 -2 11 -12 0 -36 85 -28 99 4 6 2 19 -3 30 -8 14 -7 20 4
25 8 3 15 0 15 -6 0 -7 4 -7 14 1 11 9 16 9 22 0 5 -8 3 -9 -6 -4 -9 6 -11 4
-6 -4 5 -7 15 -10 23 -7 9 4 21 2 28 -4 8 -7 16 -7 19 -2 3 5 17 7 31 4 15 -2
36 0 48 6 12 5 44 18 70 27 31 11 73 40 115 79 36 33 63 56 59 50 -4 -7 0 -17
7 -23 12 -10 13 -8 9 8 -3 13 -1 21 6 21 7 0 9 -4 6 -10 -3 -5 -1 -10 5 -10 6
0 8 -5 4 -12 -4 -6 -3 -8 4 -4 6 3 13 -3 17 -14 3 -11 11 -20 16 -20 13 0 11
27 -4 42 -8 7 -12 19 -9 27 4 11 6 11 13 0 6 -10 8 -5 7 13 -2 23 -6 27 -23
22 -20 -6 -20 -6 0 9 18 14 18 16 4 22 -18 7 -15 45 3 45 5 0 7 4 4 9 -9 14
68 61 100 61 22 0 26 -3 14 -10 -8 -5 -10 -10 -5 -10 6 0 16 5 23 12 9 9 12 9
12 -1 0 -7 5 -9 10 -6 6 4 32 -5 59 -18 26 -14 69 -29 97 -33 29 -4 56 -15 67
-27 16 -19 18 -19 36 -3 11 10 24 15 30 11 7 -3 8 0 5 9 -8 21 -21 20 -33 -1
-5 -10 -13 -14 -18 -10 -4 5 1 15 12 22 11 8 26 19 33 25 6 6 12 8 12 5 0 -4
18 12 40 34 44 44 57 49 66 26z m128 -610 c5 0 11 -6 14 -14 3 -10 0 -12 -12
-8 -9 4 -16 2 -16 -3 0 -17 -25 -11 -43 10 -19 23 -1 29 22 8 11 -11 13 -10 8
5 -5 13 -3 16 6 10 6 -4 16 -8 21 -8z m-59 -35 c11 -10 32 -20 48 -24 20 -5
27 -12 27 -30 0 -14 -7 -31 -15 -39 -9 -10 -11 -17 -4 -19 14 -5 19 -68 7 -92
-6 -10 -11 -50 -13 -90 -5 -99 -21 -194 -35 -211 -9 -10 -9 -19 0 -36 8 -14
10 -37 5 -63 -4 -23 -9 -70 -11 -105 -2 -36 -6 -72 -10 -80 -4 -9 -8 -45 -10
-81 -1 -36 -3 -65 -4 -65 -4 0 -11 -54 -13 -102 -2 -56 -5 -60 -26 -40 -11 10
-13 9 -8 -5 4 -10 2 -18 -3 -18 -6 0 -10 -5 -10 -11 0 -6 9 -8 20 -4 24 8 26
-5 5 -45 -9 -17 -12 -30 -7 -30 5 0 5 -24 0 -56 -5 -30 -6 -59 -3 -64 3 -4 -2
-27 -10 -50 -8 -23 -16 -66 -17 -96 -2 -30 -5 -54 -8 -54 -3 0 -7 -12 -8 -27
-3 -33 -22 -55 -39 -45 -15 10 -89 137 -289 494 -54 97 -102 174 -106 172 -4
-3 -6 1 -3 8 2 7 -39 99 -93 204 -70 139 -101 190 -112 187 -12 -4 -12 -2 -2
5 11 7 10 16 -4 45 -10 20 -22 33 -27 30 -6 -3 -7 -1 -4 4 4 6 -17 58 -47 114
-63 123 -98 202 -87 194 5 -2 11 5 14 16 7 27 33 19 29 -9 -4 -27 22 -39 43
-22 9 7 19 9 23 5 4 -4 1 -10 -5 -12 -22 -8 -14 -21 10 -16 22 5 22 5 2 -10
-32 -24 -11 -30 26 -8 19 12 46 21 62 21 15 0 27 5 27 12 0 6 3 9 6 5 3 -3 3
-15 -1 -27 -5 -17 -9 -19 -21 -9 -20 17 -28 5 -9 -14 8 -9 15 -21 15 -28 0 -8
4 -8 16 2 13 10 17 10 25 -2 7 -11 9 -9 9 9 0 13 4 20 10 17 5 -3 7 0 4 9 -3
8 -12 12 -20 9 -16 -6 -20 22 -4 32 15 9 -9 37 -27 31 -15 -6 -17 12 -4 32 10
16 137 47 232 57 57 6 67 5 73 -10 3 -9 4 -21 0 -26 -9 -15 -64 -10 -70 6 -4
8 -10 15 -15 15 -5 0 -4 -9 3 -20 9 -13 26 -20 58 -22 34 -2 45 -7 44 -19 -2
-20 45 -18 112 4 19 7 20 11 10 32 -6 14 -16 23 -22 21 -7 -3 -10 3 -7 14 3
10 0 21 -6 24 -6 4 -11 12 -11 18 0 6 8 4 18 -4 15 -14 28 -14 99 -4 46 7 86
16 89 19 10 10 57 -4 79 -23z"/>
<path d="M791 5430 c8 -6 8 -13 0 -29 -10 -17 -9 -21 4 -21 10 0 15 7 13 17
-2 10 3 18 11 18 8 0 16 5 18 11 2 6 -10 11 -27 11 -17 0 -26 -4 -19 -7z"/>
<path d="M190 5385 c0 -5 5 -17 10 -25 5 -8 10 -10 10 -5 0 6 -5 17 -10 25 -5
8 -10 11 -10 5z"/>
<path d="M217 5299 c4 -13 8 -18 11 -10 2 7 -1 18 -6 23 -8 8 -9 4 -5 -13z"/>
<path d="M720 5290 c0 -5 5 -10 10 -10 6 0 10 5 10 10 0 6 -4 10 -10 10 -5 0
-10 -4 -10 -10z"/>
<path d="M330 5190 c-18 -12 -2 -12 25 0 13 6 15 9 5 9 -8 0 -22 -4 -30 -9z"/>
<path d="M370 5169 c0 -5 5 -7 10 -4 6 3 10 8 10 11 0 2 -4 4 -10 4 -5 0 -10
-5 -10 -11z"/>
<path d="M630 5169 c0 -5 5 -7 10 -4 6 3 10 8 10 11 0 2 -4 4 -10 4 -5 0 -10
-5 -10 -11z"/>
<path d="M425 5160 c3 -5 11 -10 16 -10 6 0 7 5 4 10 -3 6 -11 10 -16 10 -6 0
-7 -4 -4 -10z"/>
<path d="M553 5153 c9 -2 23 -2 30 0 6 3 -1 5 -18 5 -16 0 -22 -2 -12 -5z"/>
<path d="M221 3016 c-7 -8 -8 -17 -3 -20 6 -3 13 1 16 10 9 23 2 28 -13 10z"/>
<path d="M1086 3022 c-3 -6 3 -17 15 -26 13 -9 18 -19 14 -27 -5 -8 -4 -10 3
-5 16 10 15 20 -6 47 -12 14 -21 18 -26 11z"/>
<path d="M278 2978 c10 -12 10 -18 1 -23 -13 -9 7 -25 31 -25 12 1 11 3 -3 11
-9 6 -15 14 -12 18 2 5 -3 15 -13 22 -15 13 -16 12 -4 -3z"/>
<path d="M246 2972 c-3 -5 1 -9 9 -9 8 0 12 4 9 9 -3 4 -7 8 -9 8 -2 0 -6 -4
-9 -8z"/>
<path d="M772 2895 c6 -14 15 -25 20 -25 5 0 1 11 -8 25 -9 14 -18 25 -20 25
-2 0 2 -11 8 -25z"/>
<path d="M280 2617 c0 -8 7 -17 15 -21 8 -3 15 -2 15 3 0 5 -7 14 -15 21 -12
10 -15 10 -15 -3z"/>
<path d="M960 2587 c0 -2 6 -10 14 -16 11 -9 16 -9 22 1 4 7 4 10 -1 6 -4 -4
-14 -3 -22 3 -7 6 -13 9 -13 6z"/>
<path d="M290 2566 c0 -2 8 -10 18 -17 15 -13 16 -12 3 4 -13 16 -21 21 -21
13z"/>
<path d="M1005 2551 c-3 -5 7 -22 21 -38 22 -23 26 -25 22 -8 -2 11 -10 19
-16 18 -11 -3 -16 10 -13 30 1 10 -7 9 -14 -2z"/>
<path d="M505 2510 c3 -5 10 -10 16 -10 5 0 9 5 9 10 0 6 -7 10 -16 10 -8 0
-12 -4 -9 -10z"/>
<path d="M530 2480 c0 -5 5 -10 11 -10 5 0 7 5 4 10 -3 6 -8 10 -11 10 -2 0
-4 -4 -4 -10z"/>
<path d="M565 2471 c-3 -5 -2 -12 3 -15 5 -3 9 1 9 9 0 17 -3 19 -12 6z"/>
<path d="M1020 2420 c0 -5 5 -10 10 -10 6 0 10 5 10 10 0 6 -4 10 -10 10 -5 0
-10 -4 -10 -10z"/>
<path d="M724 2309 c9 -14 13 -29 9 -32 -3 -4 -1 -7 5 -7 18 0 15 15 -9 41
l-20 24 15 -26z"/>
<path d="M685 2240 c-3 -5 -1 -10 4 -10 6 0 11 5 11 10 0 6 -2 10 -4 10 -3 0
-8 -4 -11 -10z"/>
<path d="M790 2214 c0 -5 7 -18 15 -28 8 -11 15 -16 15 -10 0 5 -7 18 -15 28
-8 11 -15 16 -15 10z"/>
<path d="M840 2141 c13 -26 13 -34 -2 -25 -10 6 -10 4 0 -7 6 -7 12 -22 12
-33 0 -19 1 -19 16 -4 15 15 15 19 -5 52 -24 38 -39 50 -21 17z"/>
<path d="M941 1993 c7 -12 15 -20 18 -17 3 2 -3 12 -13 22 -17 16 -18 16 -5
-5z"/>
<path d="M958 1955 c-3 -6 0 -19 8 -30 8 -10 14 -13 14 -6 0 7 5 9 12 5 7 -4
8 -3 4 5 -4 6 -11 9 -16 6 -5 -3 -10 3 -12 12 -2 10 -6 13 -10 8z"/>
<path d="M1006 1802 c-3 -5 1 -9 9 -9 8 0 12 4 9 9 -3 4 -7 8 -9 8 -2 0 -6 -4
-9 -8z"/>
<path d="M1054 1718 c22 -33 22 -33 22 -8 0 10 -2 17 -5 15 -2 -3 -11 1 -19 8
-11 9 -11 4 2 -15z"/>
<path d="M962 1468 c-15 -15 -15 -28 -1 -28 5 0 8 4 4 9 -3 6 3 14 12 20 10 6
13 11 8 11 -6 0 -16 -5 -23 -12z"/>
<path d="M9980 4893 c-196 -66 -630 -256 -630 -275 0 -4 -6 -8 -14 -8 -19 0
-196 -118 -196 -131 0 -5 -11 -14 -23 -20 -13 -6 -31 -23 -40 -39 -9 -15 -32
-44 -49 -65 -63 -70 -123 -188 -152 -295 -17 -64 -20 -209 -6 -277 14 -64 42
-126 73 -160 19 -21 19 -24 4 -41 -29 -31 -58 -111 -59 -160 -1 -29 6 -62 19
-87 19 -37 20 -43 6 -68 -16 -31 -13 -100 7 -137 24 -44 -4 -169 -51 -234 -16
-21 -26 -44 -22 -50 3 -6 3 -8 -1 -4 -5 4 -23 -12 -40 -35 -18 -23 -42 -53
-54 -67 -98 -116 -119 -164 -147 -335 -14 -81 -27 -174 -31 -210 -2 -22 -6
-58 -9 -80 -47 -399 -54 -457 -61 -570 -2 -33 -6 -82 -9 -110 -5 -48 -13 -151
-19 -245 -4 -54 13 -150 26 -150 5 0 7 -3 4 -8 -6 -11 14 -44 56 -90 73 -81
212 -146 398 -188 110 -25 493 -25 605 -1 109 24 253 74 278 98 11 10 27 19
34 19 7 0 13 4 13 10 0 5 5 9 11 7 6 -1 16 7 22 18 7 11 18 24 25 28 17 11 43
63 35 71 -4 3 -1 6 6 6 7 0 10 4 6 9 -3 5 -1 12 4 15 10 6 22 62 26 116 1 19
6 71 9 115 4 44 9 118 11 165 2 47 7 137 10 200 12 215 12 609 1 614 -8 3 -7
5 0 5 13 1 10 173 -3 194 -4 6 -8 20 -9 31 -8 67 -24 126 -35 126 -5 0 -8 3
-7 8 2 4 -28 59 -66 122 -91 152 -105 179 -122 242 -13 51 -13 55 13 105 25
47 26 56 16 93 -10 40 -9 45 20 88 40 59 49 157 19 214 l-19 37 47 46 c51 50
93 125 121 218 14 45 17 86 14 190 -3 161 -27 241 -115 387 -31 52 -60 104
-64 116 -7 22 3 30 159 122 102 60 135 93 135 135 0 80 -44 146 -109 166 -41
12 -48 12 -71 4z m91 -89 c32 -52 35 -92 9 -116 -22 -21 -22 -21 -16 -1 4 12
-5 46 -23 86 -16 36 -27 68 -24 70 10 11 33 -6 54 -39z m-84 -6 c10 -18 27
-52 38 -76 l19 -43 -28 -27 c-26 -25 -28 -25 -22 -5 4 12 3 24 -2 27 -6 3 -12
-4 -15 -15 -4 -13 -10 -19 -19 -14 -7 3 -4 -1 6 -9 24 -19 7 -21 -18 -3 -18
13 -18 14 1 33 17 15 19 24 11 44 l-10 25 -21 -37 c-12 -20 -31 -39 -42 -42
-34 -9 -63 -7 -68 7 -4 9 -8 9 -15 -2 -8 -11 -12 -10 -21 5 -10 16 -11 16 -4
-6 4 -14 8 -59 8 -100 0 -41 3 -79 6 -85 26 -40 139 -266 139 -278 0 -9 5 -17
11 -19 32 -11 50 -237 29 -348 -37 -188 -151 -322 -296 -346 -64 -10 -329 -5
-329 7 0 1 -9 3 -20 5 -78 12 -169 43 -229 78 -74 43 -119 102 -150 196 -25
77 -27 93 -21 169 3 47 11 93 16 102 6 12 5 19 -2 21 -8 3 -6 9 4 20 9 8 13
18 10 22 -3 3 1 14 9 23 8 10 18 33 22 52 3 19 15 40 26 48 11 8 20 21 20 30
0 9 15 32 33 52 17 21 48 57 67 80 32 39 170 149 170 136 0 -3 10 4 22 15 13
11 33 23 45 26 13 4 23 9 23 13 0 8 40 29 134 71 81 36 237 101 251 104 6 1
17 6 25 11 8 5 21 10 29 12 8 1 28 8 45 16 39 19 79 35 88 36 3 1 14 -14 25
-31z m-67 -208 c-20 -13 -57 -13 -44 -1 10 10 46 19 54 14 2 -2 -2 -8 -10 -13z
m-827 -1080 c45 -22 114 -46 152 -54 39 -8 84 -18 100 -21 62 -14 269 -16 320
-3 27 6 57 12 65 13 8 0 30 6 48 14 47 20 57 5 56 -78 0 -90 -24 -125 -97
-145 -186 -52 -504 -27 -680 53 -25 12 -50 21 -56 21 -5 0 -19 13 -31 30 -18
25 -20 40 -16 94 4 61 27 115 49 116 5 0 45 -18 90 -40z m-8 -291 c183 -64
456 -82 659 -44 l39 8 -6 -44 c-3 -24 -13 -49 -22 -55 -41 -30 -336 -47 -450
-25 -27 5 -53 7 -57 5 -4 -3 -15 0 -25 5 -10 5 -45 15 -78 21 -33 7 -84 21
-113 32 -43 16 -54 25 -59 48 -4 21 -9 27 -22 22 -14 -5 -14 -4 2 12 9 9 17
27 17 38 0 15 4 18 18 12 9 -4 53 -20 97 -35z m0 -175 c165 -44 384 -60 581
-41 l81 7 6 -39 c3 -22 18 -66 33 -98 34 -70 134 -235 148 -245 6 -4 8 -8 4
-8 -4 0 2 -18 13 -39 41 -79 51 -183 51 -526 0 -176 -3 -376 -8 -445 -4 -69
-8 -150 -9 -180 0 -30 -4 -86 -8 -125 -5 -38 -10 -97 -12 -130 -4 -62 -31
-154 -61 -204 -29 -49 -143 -112 -229 -125 -22 -4 -56 -11 -75 -16 -19 -5 -55
-12 -80 -15 -77 -10 -403 -14 -450 -6 -25 5 -67 12 -95 15 -27 3 -74 13 -103
21 -29 9 -58 13 -64 9 -6 -4 -8 -3 -4 4 7 12 -29 26 -44 17 -5 -3 -10 -2 -10
3 0 9 -50 37 -62 34 -4 -1 -18 8 -32 21 -13 12 -30 27 -38 33 -25 22 -48 54
-48 70 0 9 -5 12 -12 8 -7 -5 -9 -2 -5 8 3 9 3 19 -1 22 -3 4 -8 14 -10 24 -6
29 -7 210 -1 206 3 -2 6 9 6 24 0 53 11 150 17 161 4 6 1 11 -6 11 -10 0 -10
2 0 8 7 5 12 28 11 63 -1 30 2 62 6 72 4 10 5 20 2 23 -3 4 -2 17 3 30 6 16 6
24 -1 24 -6 0 -6 6 0 19 6 10 7 21 4 25 -3 3 -2 6 4 6 5 0 10 15 10 33 0 64
12 200 23 251 5 28 9 66 6 84 -2 17 -1 32 3 32 3 0 7 19 8 43 1 23 5 65 9 92
3 28 7 60 8 72 0 11 4 19 9 16 4 -2 7 19 7 47 0 35 4 49 11 44 7 -4 9 0 5 14
-8 23 37 132 53 132 6 0 11 5 11 11 0 9 45 73 90 126 5 7 10 20 10 29 0 10 3
15 6 11 7 -7 22 8 41 38 39 64 63 109 63 121 0 7 5 16 10 19 6 3 10 24 10 46
0 44 -6 43 105 13z"/>
<path d="M9755 4551 c-3 -5 -1 -12 5 -16 5 -3 10 1 10 9 0 18 -6 21 -15 7z"/>
<path d="M1 4405 c0 -119 0 -120 18 -97 11 12 23 22 27 22 4 0 19 -10 32 -22
25 -23 25 -23 -2 22 -37 61 -56 105 -66 154 -6 31 -8 11 -9 -79z"/>
</g>
</svg>
